<svg width="1021" height="723" viewBox="0 0 1021 723" fill="none" xmlns="http://www.w3.org/2000/svg">
<path d="M98.6733 646.285C101.754 648.307 106.756 650.984 116.175 652.509C121.957 653.425 129.964 654.741 140.032 652.61C140.467 652.517 141.233 652.362 142.221 652.093C142.269 652.084 142.326 652.073 142.373 652.057C142.463 652.042 142.558 652.017 142.656 652.001C142.99 651.918 143.345 651.819 143.726 651.746C151.11 649.706 166.327 644.225 171.323 631.428C171.622 630.696 175.185 621.361 171.272 617.84C166.336 613.486 153.259 621.217 151.719 618.652C150.946 617.35 153.978 615.1 156.507 611.305C162.27 602.831 164.26 588.769 157.578 582.654C154.444 579.728 149.222 578.511 144.713 579.992C137.358 582.317 135.847 593.549 134.938 593.321C133.637 592.935 142.671 572.871 134.488 563.405C131.601 560.096 126.349 557.819 122.805 559.266C117.613 561.397 118.344 570.744 115.67 570.962C112.836 571.193 112.501 560.819 103.929 553.194C101.741 551.276 96.6178 546.735 90.7276 547.875C85.6144 548.812 81.4233 553.522 80.6636 558.505C79.9884 563.109 82.4084 566.764 83.1038 567.747C87.5082 574.202 93.8685 572.722 104.085 580.403C107.658 583.071 111.231 586.512 110.541 587.859C109.966 588.818 107.495 587.703 103.595 588.623C103.513 588.634 103.389 588.652 103.227 588.709C102.042 589.004 97.823 590.079 95.7256 593.574C95.6163 593.708 93.4238 597.55 95.0886 600.427C95.9209 601.927 97.4629 602.533 98.1254 602.822C104.778 605.597 112.187 611.065 111.766 612.17C111.32 613.45 100.634 608.873 97.7773 612.374C95.4082 615.287 99.7684 622.114 100.334 622.993C105.079 630.303 113.062 633.298 112.75 633.869C112.466 634.344 106.814 630.397 99.8433 631.214C96.5954 631.573 91.3444 633.132 90.6004 636.317C89.6415 640.222 95.9936 644.495 98.6733 646.285Z" fill="#BAB8FF"/>
<path d="M110.287 623.649C111.318 622.426 113.09 622.647 114.428 623.163C116.116 623.813 117.608 624.897 118.945 626.104C121.759 628.643 124.013 631.909 127.365 633.794C129.06 634.747 130.975 635.298 132.92 635.063C131.02 629.39 129.792 623.487 128.653 617.62C128.226 615.424 127.806 613.22 127.361 611.019C123.242 606.651 116.487 607.018 111.836 603.459C110.598 602.512 109.593 601.312 108.988 599.865C108.886 599.622 109.272 599.487 109.374 599.729C110.533 602.502 113.205 604.131 115.869 605.211C118.506 606.278 121.318 606.858 123.896 608.082C125.109 608.658 126.24 609.391 127.215 610.315C125.997 604.377 124.563 598.477 122.22 592.878C119.381 586.099 115.196 579.68 109.216 575.31C108.465 574.765 107.691 574.254 106.897 573.786C106.676 573.646 106.85 573.28 107.077 573.409C113.229 577.083 117.786 582.858 120.981 589.216C121.527 590.299 122.02 591.402 122.49 592.514C122.498 592.468 122.516 592.422 122.564 592.388C125.483 590.231 125.293 586.228 124.815 583.018C124.553 581.263 124.215 579.504 124.244 577.721C124.267 576.241 124.502 574.649 125.555 573.533C125.735 573.342 126.046 573.607 125.865 573.799C124.634 575.103 124.576 577.12 124.677 578.812C124.787 580.654 125.189 582.462 125.396 584.292C125.737 587.302 125.42 590.787 122.796 592.726C122.711 592.788 122.63 592.762 122.569 592.709C125.193 598.987 126.719 605.676 128.039 612.346C128.771 616.043 129.461 619.759 130.253 623.447C134.495 622.07 138.186 618.884 140.287 614.941C141.436 612.788 141.936 610.5 142.119 608.077C142.318 605.447 142.278 602.755 143.086 600.216C143.884 597.709 145.645 595.362 148.299 594.726C148.552 594.666 148.689 595.052 148.434 595.114C145.761 595.755 144.075 598.176 143.362 600.714C142.63 603.316 142.718 606.044 142.475 608.713C142.264 611.024 141.698 613.209 140.585 615.25C139.55 617.148 138.165 618.841 136.551 620.269C134.747 621.865 132.634 623.119 130.342 623.855C131.317 628.344 132.458 632.788 134.063 637.101C135.174 640.092 136.527 643.023 138.156 645.778C140.486 639.562 147.538 637.341 151.755 632.749C152.989 631.406 153.979 629.85 154.462 628.074C154.531 627.821 154.932 627.897 154.863 628.153C153.087 634.68 145.952 637.12 141.555 641.468C140.226 642.781 139.12 644.296 138.478 646.067C138.459 646.12 138.423 646.144 138.386 646.162C139.64 648.234 141.049 650.204 142.656 652.001C142.558 652.018 142.463 652.042 142.373 652.056C142.326 652.072 142.27 652.084 142.221 652.093C139.489 649.008 137.28 645.435 135.518 641.661C134.577 639.639 133.769 637.566 133.051 635.464C129.773 635.906 126.716 634.2 124.339 632.084C121.579 629.625 119.388 626.5 116.22 624.523C114.759 623.611 112.014 622.236 110.598 623.916C110.427 624.117 110.117 623.85 110.287 623.649Z" fill="white"/>
<path d="M188.773 649.531C186.799 650.827 183.595 652.542 177.56 653.52C173.855 654.106 168.726 654.95 162.275 653.584C161.997 653.525 161.505 653.425 160.872 653.253C160.841 653.248 160.805 653.24 160.775 653.23C160.717 653.221 160.656 653.205 160.594 653.194C160.38 653.141 160.152 653.078 159.908 653.03C155.177 651.724 145.428 648.212 142.227 640.012C142.035 639.544 139.753 633.563 142.26 631.306C145.422 628.517 153.802 633.47 154.787 631.827C155.282 630.991 153.34 629.551 151.719 627.12C148.027 621.691 146.752 612.681 151.033 608.763C153.041 606.888 156.387 606.109 159.276 607.058C163.988 608.548 164.955 615.744 165.539 615.598C166.372 615.35 160.584 602.495 165.827 596.431C167.676 594.311 171.042 592.852 173.313 593.779C176.639 595.143 176.171 601.132 177.883 601.272C179.699 601.42 179.913 594.774 185.406 589.888C186.808 588.659 190.09 585.75 193.864 586.48C197.14 587.081 199.825 590.098 200.312 593.291C200.744 596.241 199.193 598.583 198.748 599.212C195.926 603.347 191.851 602.399 185.305 607.321C183.016 609.03 180.727 611.235 181.169 612.098C181.538 612.712 183.121 611.998 185.619 612.587C185.673 612.595 185.751 612.606 185.855 612.642C186.615 612.831 189.318 613.52 190.662 615.76C190.731 615.845 192.136 618.307 191.07 620.15C190.537 621.111 189.549 621.5 189.123 621.684C184.86 623.463 180.115 626.966 180.384 627.674C180.67 628.493 187.516 625.561 189.346 627.805C190.864 629.671 188.07 634.045 187.709 634.609C184.669 639.292 179.554 641.211 179.754 641.577C179.936 641.88 183.557 639.352 188.023 639.875C190.104 640.105 193.469 641.104 193.945 643.145C194.56 645.647 190.49 648.385 188.773 649.531Z" fill="#9359F0"/>
<path d="M181.333 635.029C180.672 634.245 179.537 634.387 178.679 634.717C177.597 635.134 176.642 635.828 175.785 636.602C173.982 638.228 172.538 640.321 170.39 641.529C169.304 642.139 168.078 642.492 166.831 642.342C168.048 638.707 168.835 634.925 169.565 631.166C169.838 629.76 170.108 628.347 170.393 626.938C173.032 624.138 177.359 624.374 180.34 622.094C181.133 621.486 181.777 620.718 182.164 619.791C182.229 619.635 181.982 619.549 181.917 619.705C181.175 621.481 179.463 622.524 177.755 623.216C176.066 623.901 174.264 624.272 172.612 625.056C171.835 625.425 171.111 625.895 170.486 626.487C171.266 622.682 172.186 618.903 173.687 615.315C175.506 610.972 178.187 606.859 182.018 604.06C182.5 603.711 182.996 603.384 183.504 603.083C183.646 602.994 183.533 602.759 183.388 602.841C179.446 605.195 176.526 608.895 174.48 612.969C174.13 613.662 173.814 614.369 173.513 615.081C173.508 615.052 173.496 615.023 173.466 615.001C171.595 613.619 171.716 611.054 172.023 608.997C172.191 607.873 172.408 606.746 172.389 605.604C172.374 604.655 172.225 603.635 171.549 602.92C171.433 602.798 171.234 602.969 171.35 603.091C172.139 603.927 172.176 605.219 172.111 606.303C172.041 607.483 171.784 608.64 171.651 609.814C171.433 611.742 171.635 613.974 173.317 615.217C173.371 615.257 173.424 615.24 173.463 615.206C171.781 619.228 170.804 623.514 169.958 627.787C169.489 630.156 169.048 632.536 168.539 634.9C165.822 634.017 163.457 631.975 162.111 629.45C161.375 628.07 161.055 626.605 160.937 625.053C160.81 623.367 160.836 621.643 160.318 620.016C159.807 618.411 158.679 616.907 156.979 616.499C156.817 616.46 156.729 616.709 156.893 616.748C158.606 617.158 159.686 618.71 160.142 620.336C160.611 622.003 160.555 623.75 160.711 625.461C160.845 626.941 161.208 628.341 161.922 629.65C162.584 630.865 163.471 631.95 164.506 632.865C165.662 633.887 167.015 634.691 168.484 635.163C167.859 638.038 167.128 640.886 166.1 643.649C165.388 645.565 164.521 647.444 163.478 649.209C161.985 645.227 157.467 643.804 154.766 640.862C153.975 640.001 153.341 639.004 153.031 637.866C152.987 637.704 152.73 637.752 152.775 637.917C153.912 642.098 158.484 643.662 161.301 646.447C162.152 647.289 162.861 648.26 163.272 649.394C163.284 649.428 163.307 649.444 163.331 649.455C162.528 650.783 161.625 652.045 160.595 653.197C160.658 653.207 160.719 653.223 160.776 653.233C160.806 653.244 160.842 653.25 160.874 653.256C162.624 651.28 164.039 648.991 165.168 646.573C165.771 645.277 166.289 643.95 166.749 642.603C168.849 642.886 170.808 641.793 172.331 640.437C174.099 638.862 175.503 636.859 177.533 635.593C178.469 635.008 180.227 634.127 181.134 635.203C181.243 635.329 181.441 635.158 181.333 635.029Z" fill="white"/>
<path d="M913.789 646.004C910.709 648.026 905.707 650.704 896.288 652.229C890.506 653.145 882.499 654.461 872.431 652.33C871.996 652.237 871.229 652.081 870.242 651.812C870.193 651.803 870.136 651.793 870.09 651.776C869.999 651.762 869.904 651.737 869.807 651.72C869.473 651.638 869.118 651.539 868.737 651.466C861.352 649.426 846.136 643.945 841.14 631.147C840.84 630.416 837.278 621.081 841.191 617.559C846.127 613.206 859.204 620.937 860.744 618.372C861.516 617.069 858.485 614.82 855.956 611.025C850.193 602.551 848.203 588.489 854.884 582.374C858.019 579.448 863.241 578.231 867.75 579.712C875.104 582.037 876.616 593.269 877.525 593.041C878.826 592.654 869.791 572.591 877.974 563.124C880.862 559.816 886.114 557.539 889.658 558.986C894.85 561.117 894.119 570.464 896.793 570.682C899.627 570.913 899.962 560.539 908.534 552.914C910.722 550.995 915.845 546.455 921.734 547.595C926.848 548.532 931.039 553.242 931.798 558.225C932.474 562.829 930.054 566.484 929.358 567.467C924.954 573.922 918.594 572.442 908.377 580.123C904.804 582.791 901.231 586.232 901.921 587.579C902.496 588.538 904.967 587.423 908.867 588.343C908.949 588.354 909.073 588.372 909.235 588.429C910.42 588.724 914.639 589.799 916.736 593.294C916.845 593.428 919.038 597.27 917.373 600.147C916.54 601.647 914.998 602.252 914.336 602.541C907.682 605.317 900.275 610.785 900.695 611.89C901.142 613.17 911.828 608.593 914.684 612.094C917.053 615.006 912.693 621.833 912.127 622.713C907.383 630.023 899.4 633.018 899.711 633.589C899.995 634.064 905.647 630.117 912.618 630.934C915.866 631.293 921.117 632.852 921.861 636.037C922.821 639.942 916.469 644.215 913.789 646.004Z" fill="#BAB8FF"/>
<path d="M902.176 623.369C901.144 622.146 899.373 622.366 898.034 622.883C896.345 623.533 894.855 624.617 893.517 625.823C890.704 628.362 888.449 631.629 885.097 633.514C883.403 634.466 881.488 635.018 879.543 634.783C881.443 629.11 882.67 623.207 883.81 617.34C884.236 615.144 884.656 612.94 885.102 610.739C889.221 606.37 895.976 606.738 900.627 603.179C901.864 602.232 902.87 601.032 903.474 599.585C903.576 599.341 903.191 599.207 903.089 599.449C901.93 602.222 899.258 603.85 896.594 604.93C893.957 605.998 891.145 606.577 888.567 607.802C887.353 608.378 886.223 609.111 885.248 610.035C886.466 604.097 887.901 598.197 890.243 592.598C893.083 585.819 897.267 579.4 903.247 575.03C903.998 574.485 904.772 573.974 905.567 573.505C905.788 573.366 905.613 572.999 905.386 573.129C899.234 576.803 894.677 582.578 891.482 588.936C890.936 590.019 890.443 591.122 889.973 592.233C889.965 592.187 889.946 592.142 889.899 592.108C886.98 589.951 887.169 585.948 887.647 582.738C887.909 580.982 888.248 579.224 888.219 577.441C888.195 575.961 887.961 574.368 886.908 573.253C886.728 573.063 886.416 573.328 886.597 573.52C887.828 574.823 887.886 576.84 887.784 578.533C887.674 580.375 887.273 582.182 887.065 584.013C886.724 587.022 887.041 590.506 889.665 592.446C889.75 592.509 889.831 592.483 889.892 592.43C887.268 598.707 885.742 605.396 884.422 612.067C883.69 615.764 883.001 619.479 882.209 623.168C877.967 621.79 874.276 618.604 872.175 614.661C871.026 612.508 870.526 610.22 870.343 607.797C870.144 605.168 870.184 602.476 869.376 599.936C868.579 597.43 866.818 595.082 864.164 594.447C863.911 594.387 863.774 594.773 864.029 594.835C866.702 595.476 868.388 597.897 869.101 600.435C869.832 603.037 869.745 605.764 869.988 608.434C870.199 610.744 870.764 612.93 871.878 614.972C872.913 616.869 874.297 618.562 875.911 619.99C877.716 621.586 879.828 622.84 882.121 623.577C881.146 628.066 880.004 632.51 878.399 636.823C877.289 639.814 875.935 642.745 874.306 645.5C871.977 639.284 864.925 637.063 860.708 632.471C859.473 631.128 858.484 629.572 858 627.796C857.931 627.543 857.53 627.619 857.6 627.875C859.375 634.402 866.51 636.842 870.908 641.19C872.237 642.503 873.343 644.018 873.984 645.789C874.004 645.842 874.04 645.866 874.077 645.884C872.823 647.956 871.414 649.926 869.807 651.723C869.904 651.741 869.999 651.765 870.09 651.779C870.136 651.795 870.192 651.806 870.242 651.815C872.974 648.731 875.183 645.158 876.944 641.384C877.886 639.362 878.693 637.289 879.411 635.186C882.689 635.628 885.746 633.923 888.124 631.806C890.883 629.348 893.075 626.223 896.243 624.246C897.704 623.334 900.448 621.958 901.864 623.639C902.036 623.837 902.346 623.57 902.176 623.369Z" fill="white"/>
<path d="M823.689 649.251C825.662 650.547 828.868 652.262 834.902 653.24C838.608 653.826 843.736 654.67 850.187 653.304C850.466 653.245 850.957 653.145 851.59 652.973C851.622 652.968 851.657 652.96 851.687 652.95C851.745 652.941 851.806 652.925 851.869 652.914C852.083 652.861 852.31 652.798 852.554 652.75C857.286 651.443 867.034 647.932 870.235 639.732C870.427 639.264 872.709 633.283 870.202 631.026C867.04 628.237 858.661 633.19 857.675 631.547C857.18 630.711 859.123 629.271 860.743 626.84C864.436 621.411 865.71 612.401 861.43 608.483C859.421 606.608 856.075 605.829 853.187 606.778C848.475 608.268 847.507 615.464 846.924 615.318C846.09 615.07 851.879 602.215 846.636 596.15C844.786 594.03 841.42 592.572 839.149 593.498C835.824 594.863 836.292 600.852 834.579 600.992C832.763 601.139 832.548 594.493 827.056 589.607C825.654 588.378 822.372 585.469 818.598 586.2C815.322 586.8 812.637 589.818 812.151 593.01C811.718 595.96 813.269 598.302 813.714 598.931C816.536 603.066 820.611 602.118 827.157 607.04C829.446 608.749 831.735 610.954 831.293 611.817C830.925 612.432 829.341 611.717 826.843 612.307C826.79 612.314 826.711 612.325 826.607 612.362C825.847 612.551 823.145 613.239 821.801 615.479C821.731 615.565 820.326 618.027 821.393 619.869C821.926 620.83 822.914 621.219 823.339 621.404C827.602 623.182 832.347 626.685 832.078 627.393C831.792 628.213 824.946 625.281 823.116 627.524C821.598 629.39 824.391 633.765 824.754 634.328C827.793 639.012 832.908 640.93 832.708 641.296C832.526 641.599 828.905 639.071 824.439 639.595C822.358 639.824 818.994 640.824 818.518 642.864C817.902 645.367 821.972 648.104 823.689 649.251Z" fill="#9359F0"/>
<path d="M831.13 634.748C831.791 633.964 832.925 634.106 833.783 634.437C834.865 634.853 835.82 635.547 836.677 636.321C838.479 637.948 839.924 640.04 842.072 641.248C843.158 641.858 844.385 642.211 845.631 642.061C844.414 638.427 843.627 634.644 842.897 630.886C842.624 629.479 842.355 628.067 842.069 626.657C839.431 623.857 835.103 624.093 832.122 621.813C831.329 621.206 830.686 620.438 830.298 619.51C830.233 619.355 830.48 619.268 830.545 619.424C831.288 621.2 832.999 622.244 834.707 622.936C836.396 623.62 838.198 623.991 839.85 624.776C840.628 625.145 841.352 625.615 841.977 626.206C841.197 622.402 840.277 618.622 838.776 615.035C836.957 610.691 834.276 606.579 830.445 603.779C829.963 603.43 829.467 603.103 828.959 602.802C828.817 602.713 828.929 602.479 829.075 602.561C833.017 604.914 835.937 608.614 837.983 612.688C838.333 613.381 838.649 614.088 838.95 614.8C838.955 614.771 838.967 614.742 838.997 614.72C840.867 613.338 840.746 610.773 840.439 608.717C840.271 607.592 840.054 606.465 840.073 605.323C840.088 604.374 840.238 603.354 840.913 602.64C841.029 602.518 841.228 602.688 841.112 602.811C840.323 603.646 840.286 604.938 840.351 606.022C840.421 607.202 840.679 608.36 840.811 609.533C841.03 611.461 840.827 613.693 839.145 614.936C839.091 614.976 839.039 614.959 839 614.925C840.681 618.947 841.658 623.233 842.504 627.506C842.974 629.875 843.415 632.256 843.923 634.619C846.641 633.736 849.005 631.695 850.351 629.169C851.087 627.79 851.407 626.324 851.525 624.772C851.652 623.086 851.627 621.362 852.144 619.736C852.655 618.13 853.783 616.626 855.484 616.219C855.646 616.18 855.734 616.428 855.57 616.467C853.857 616.878 852.777 618.429 852.321 620.055C851.852 621.722 851.908 623.469 851.752 625.18C851.618 626.66 851.255 628.061 850.542 629.369C849.88 630.584 848.993 631.669 847.958 632.584C846.802 633.607 845.448 634.41 843.98 634.882C844.605 637.757 845.336 640.605 846.365 643.369C847.076 645.285 847.943 647.163 848.987 648.928C850.479 644.946 854.997 643.523 857.699 640.581C858.489 639.721 859.124 638.723 859.433 637.585C859.477 637.424 859.734 637.472 859.69 637.636C858.553 641.817 853.981 643.381 851.163 646.167C850.312 647.008 849.603 647.979 849.192 649.114C849.179 649.147 849.157 649.163 849.133 649.175C849.936 650.502 850.839 651.765 851.869 652.916C851.806 652.927 851.745 652.942 851.687 652.952C851.657 652.963 851.621 652.97 851.59 652.976C849.839 650.999 848.424 648.71 847.296 646.292C846.692 644.996 846.175 643.669 845.715 642.322C843.615 642.605 841.656 641.512 840.133 640.156C838.365 638.581 836.961 636.579 834.931 635.312C833.994 634.727 832.237 633.846 831.329 634.922C831.219 635.049 831.021 634.878 831.13 634.748Z" fill="white"/>
<path d="M288.774 444.869C259.113 442.63 228.424 440.928 200.769 453.95C187.333 460.276 175.329 469.177 162.452 476.511C149.375 483.958 135.466 489.845 121.048 494.1C104.887 498.869 88.2261 501.52 71.3975 502.066C67.0179 502.209 66.9984 509.074 71.3975 508.932C100.869 507.975 129.917 500.702 156.349 487.53C169.676 480.889 181.779 472.222 194.694 464.863C208.124 457.212 222.415 452.502 237.794 450.938C254.75 449.214 271.832 450.455 288.773 451.734C293.154 452.064 293.133 445.198 288.774 444.869Z" fill="#4642B8"/>
<path d="M754.874 498.814C780.352 502.29 806.481 507.813 829.818 519C839.546 523.662 849.101 529.43 856.352 537.575C861.567 543.434 865.868 550.219 869.261 557.293C874.377 567.959 876.591 579.516 880.242 590.691C883.763 601.467 889.489 610.637 899.103 616.89C906.374 621.618 914.835 624.465 923.191 626.525C936.557 629.821 950.366 631.274 964.065 632.28C968.446 632.601 968.426 625.735 964.065 625.415C944.517 623.979 922.208 622.382 904.783 612.331C895.379 606.907 889.953 598.607 886.673 588.409C883 576.984 880.576 565.32 875.425 554.401C867.464 537.525 854.964 524.573 838.593 515.774C813.53 502.303 784.629 496.005 756.687 492.195C752.395 491.609 750.537 498.223 754.874 498.814Z" fill="#4642B8"/>
<path d="M427.1 220.712H369.241V194.429L427.1 125.232H454.781V195.919H469.129V220.712H454.781V242.208H427.1V220.712ZM427.1 195.92V159.724L396.528 195.92H427.1Z" fill="url(#paint0_linear_849_38)"/>
<path d="M479.032 184.23C479.032 162.369 482.943 147.07 490.768 138.334C498.591 129.6 510.508 125.232 526.52 125.232C534.213 125.232 540.529 126.187 545.468 128.095C550.406 130.005 554.436 132.489 557.555 135.549C560.674 138.608 563.13 141.825 564.924 145.199C566.718 148.572 568.16 152.509 569.252 157.006C571.383 165.584 572.448 174.528 572.448 183.838C572.448 204.707 568.939 219.98 561.922 229.656C554.904 239.333 542.818 244.17 525.663 244.17C516.045 244.17 508.274 242.626 502.348 239.541C496.422 236.456 491.56 231.931 487.767 225.968C485.011 221.732 482.866 215.94 481.334 208.591C479.799 201.243 479.032 193.123 479.032 184.23ZM510.534 184.309C510.534 198.955 511.821 208.958 514.394 214.318C516.968 219.68 520.697 222.36 525.584 222.36C528.807 222.36 531.6 221.223 533.966 218.948C536.331 216.673 538.072 213.077 539.191 208.16C540.308 203.244 540.868 195.581 540.868 185.173C540.868 169.901 539.581 159.636 537.008 154.379C534.434 149.123 530.575 146.495 525.428 146.495C520.176 146.495 516.383 149.176 514.043 154.537C511.704 159.898 510.534 169.821 510.534 184.309Z" fill="url(#paint1_linear_849_38)"/>
<path d="M640.132 220.712H582.273V194.429L640.132 125.232H667.814V195.919H682.162V220.712H667.814V242.208H640.132V220.712ZM640.132 195.92V159.724L609.561 195.92H640.132Z" fill="url(#paint2_linear_849_38)"/>
<path d="M470.534 83.5813C470.534 78.6588 471.897 74.8262 474.623 72.084C477.349 69.3412 481.144 67.9697 486.009 67.9697C490.998 67.9697 494.841 69.3171 497.539 72.0117C500.238 74.7057 501.587 78.4803 501.587 83.3342C501.587 86.8589 500.997 89.7478 499.818 92.0035C498.639 94.2591 496.936 96.0138 494.708 97.2685C492.48 98.5233 489.703 99.1506 486.378 99.1506C482.997 99.1506 480.201 98.6084 477.986 97.5254C475.771 96.4424 473.976 94.7283 472.599 92.3838C471.222 90.0393 470.534 87.1059 470.534 83.5813ZM479.795 83.6227C479.795 86.6668 480.357 88.8539 481.481 90.1839C482.606 91.5139 484.136 92.1789 486.071 92.1789C488.06 92.1789 489.6 91.5275 490.691 90.2246C491.781 88.9224 492.326 86.5847 492.326 83.2107C492.326 80.3729 491.757 78.2981 490.62 76.9891C489.481 75.6795 487.938 75.025 485.989 75.025C484.122 75.025 482.623 75.69 481.492 77.02C480.36 78.35 479.795 80.5514 479.795 83.6227Z" fill="#0F172A"/>
<path d="M505 87.7767C505 84.4449 506.117 81.699 508.353 79.5397C510.587 77.3798 513.606 76.2998 517.408 76.2998C521.756 76.2998 525.04 77.5681 527.261 80.1053C529.047 82.1478 529.94 84.664 529.94 87.6539C529.94 91.0129 528.832 93.7655 526.618 95.9112C524.403 98.0576 521.34 99.1308 517.429 99.1308C513.94 99.1308 511.119 98.2398 508.965 96.4564C506.321 94.249 505 91.3555 505 87.7767ZM513.34 87.7556C513.34 89.7032 513.732 91.1424 514.515 92.0755C515.299 93.0079 516.283 93.4741 517.469 93.4741C518.668 93.4741 519.653 93.0147 520.423 92.0959C521.192 91.177 521.578 89.7032 521.578 87.6743C521.578 85.7817 521.189 84.3726 520.412 83.447C519.636 82.5214 518.675 82.0582 517.53 82.0582C516.317 82.0582 515.315 82.5282 514.524 83.4673C513.735 84.4072 513.34 85.8366 513.34 87.7556Z" fill="#0F172A"/>
<path d="M533.988 106.947V76.7939H541.777V80.0233C542.853 78.6654 543.842 77.7473 544.741 77.2668C545.954 76.6221 547.296 76.2998 548.768 76.2998C551.671 76.2998 553.916 77.4174 555.504 79.6527C557.092 81.888 557.886 84.6505 557.886 87.9409C557.886 91.5747 557.02 94.3484 555.289 96.2606C553.559 98.1736 551.371 99.13 548.728 99.13C547.447 99.13 546.278 98.9101 545.221 98.4718C544.165 98.0335 543.221 97.3813 542.391 96.5175V106.946H533.988V106.947ZM542.328 87.7767C542.328 89.5043 542.689 90.7869 543.412 91.6229C544.135 92.4589 545.048 92.8776 546.151 92.8776C547.119 92.8776 547.93 92.4762 548.584 91.6741C549.238 90.872 549.565 89.5111 549.565 87.5914C549.565 85.8223 549.225 84.5232 548.543 83.6932C547.862 82.864 547.03 82.4491 546.049 82.4491C544.986 82.4491 544.099 82.8678 543.391 83.7038C542.683 84.5405 542.328 85.8984 542.328 87.7767Z" fill="#0F172A"/>
<path d="M560.399 92.5698L568.658 91.788C568.999 92.7754 569.475 93.4818 570.089 93.9066C570.702 94.3314 571.52 94.5445 572.542 94.5445C573.66 94.5445 574.525 94.305 575.139 93.8253C575.616 93.469 575.854 93.0247 575.854 92.4907C575.854 91.889 575.541 91.4228 574.914 91.0944C574.464 90.861 573.272 90.574 571.337 90.2313C568.448 89.7252 566.441 89.256 565.317 88.8237C564.192 88.3922 563.245 87.6632 562.475 86.6359C561.705 85.6079 561.32 84.4375 561.32 83.1226C561.32 81.6834 561.736 80.4445 562.567 79.4037C563.398 78.3628 564.543 77.5849 566.001 77.0712C567.46 76.5576 569.416 76.3008 571.868 76.3008C574.458 76.3008 576.369 76.4996 577.602 76.8973C578.836 77.2949 579.864 77.9125 580.689 78.7484C581.513 79.5844 582.198 80.7164 582.744 82.142L574.853 82.9238C574.649 82.2241 574.307 81.7105 573.83 81.3814C573.176 80.943 572.386 80.7231 571.459 80.7231C570.519 80.7231 569.834 80.8911 569.404 81.227C568.975 81.5621 568.761 81.9688 568.761 82.4485C568.761 82.9825 569.033 83.3862 569.578 83.6596C570.123 83.933 571.309 84.18 573.135 84.3991C575.902 84.7139 577.959 85.1523 579.309 85.7141C580.658 86.2759 581.691 87.0772 582.406 88.1181C583.121 89.1589 583.479 90.3021 583.479 91.5493C583.479 92.8093 583.101 94.0361 582.345 95.2276C581.588 96.419 580.396 97.368 578.768 98.0736C577.139 98.7786 574.921 99.1318 572.113 99.1318C568.147 99.1318 565.323 98.5632 563.64 97.4244C561.956 96.2857 560.876 94.668 560.399 92.5698Z" fill="#0F172A"/>
<path d="M601.428 68.4844H610.32V75.3536L608.603 89.1546H603.104L601.428 75.3536V68.4844ZM601.734 91.2536H610.034V98.6372H601.734V91.2536Z" fill="#0F172A"/>
<path d="M724.18 388.472C724.18 388.472 721.064 404.465 714.655 415.5C713.243 417.916 711.68 420.108 709.951 421.821C699.07 432.687 660.985 433.722 660.985 433.722C655.364 441.191 644.947 442.504 640.59 437.618C638.036 434.743 651.086 433.553 652.987 429.701C652.987 429.701 646.513 427.515 648.295 425.005C649.315 423.571 655.409 423.53 661.105 425.366C675.114 418.972 683.156 418.191 696.968 411.961C703.07 401.22 714.848 389.664 716.229 384.134L724.18 388.472Z" fill="#F1CCCD"/>
<path d="M727.456 390.254C727.456 390.254 719.862 413.963 713.453 424.997L697.48 409.421C710.063 387.255 715.07 384.777 720.428 381.465L727.456 390.254Z" fill="#9359F0"/>
<path d="M712.426 343.625C713.44 337.77 720.059 333.65 725.704 336.859C727.858 338.083 730.014 339.286 732.326 340.171C734.734 341.092 737.425 340.882 739.914 341.545C745.68 343.079 749.467 349.869 747.761 355.619C746.814 358.814 744.437 361.914 745.344 365.12C746.269 368.392 750.01 369.731 752.905 371.489C755.241 372.908 757.304 374.959 758.207 377.551C759.111 380.142 758.654 383.306 756.658 385.178C755.228 386.52 753.098 387.198 752.242 388.966C751.184 391.153 752.632 393.661 753.895 395.735C755.158 397.809 756.227 400.659 754.634 402.487C753.335 403.978 750.995 403.842 749.1 403.302C747.204 402.762 745.233 401.935 743.332 402.455C741.293 403.015 739.965 404.957 738.173 406.087C736.125 407.378 733.495 407.535 731.176 406.849C728.858 406.163 726.823 404.702 725.119 402.979C721.276 399.092 722.429 392.281 718.741 388.246C712.04 380.915 713.723 367.643 721.832 361.198C721.834 361.198 710.566 354.361 712.426 343.625Z" fill="#4642B8"/>
<path d="M728.281 558.624C729.125 567.518 729.39 575.41 729.202 582.669C728.735 601.214 726.47 613.123 722.019 630.441L719.466 638.802L712.205 642.217L713.576 630.485C713.576 630.485 708.824 594.447 706.669 568.991C706.107 562.53 705.748 556.784 705.701 552.49C705.373 527.975 723.314 461.972 724.469 457.698L724.517 457.535L724.532 457.474L750.432 456.654C760.645 507.115 744.677 516.606 728.281 558.624Z" fill="#F1CCCD"/>
<path d="M779.415 641.592L779.228 626.779C779.228 626.779 765.012 599.772 752.957 583.463C750.092 579.558 747.415 576.16 745.165 573.668C729.073 555.899 712.81 460.362 712.81 460.362L736.538 458.174C757.142 478.422 755.213 509.097 758.484 538.922C759.618 549.261 763.12 559.007 768.27 567.323C769.307 568.998 770.295 570.701 771.241 572.452C777.827 584.673 781.961 599.647 787.164 623.879L791.143 630.747L779.415 641.592Z" fill="#F1CCCD"/>
<path d="M714.467 454.779L748.074 448.347C782.451 483.175 760.234 523.462 770.868 556.916C749.9 560.382 734.872 568.972 696.379 559.729C697.868 512.816 706.679 498.683 714.467 454.779Z" fill="#4642B8"/>
<path d="M792.36 631.996C792.647 634.573 794.701 644.592 795.202 645.473L792.789 646.678L789.209 638.925C789.209 638.925 786.161 640.918 785.359 644.169C784.557 647.42 784.207 650.172 780.359 651.856C776.51 653.54 770.873 656.349 770.379 653.71C769.886 651.07 776.899 643.316 778.085 638.274C779.404 632.677 779.228 626.779 779.228 626.779C782.664 626.984 784.741 626.261 787.163 623.879C787.164 623.88 792.073 629.42 792.36 631.996Z" fill="#4642B8"/>
<path d="M724.197 639.844C723.605 642.367 722.188 652.498 722.366 653.497L719.69 653.815L718.913 645.302C718.913 645.302 715.376 646.146 713.533 648.936C711.69 651.726 710.44 654.2 706.253 654.481C702.065 654.763 695.817 655.5 696.236 652.848C696.654 650.195 705.852 645.268 708.656 640.923C711.77 636.098 713.577 630.485 713.577 630.485C716.745 631.842 718.941 631.865 722.02 630.442C722.02 630.441 724.789 637.321 724.197 639.844Z" fill="#4642B8"/>
<path d="M710.374 467.538C719.85 429.573 701.986 409.268 714.613 386.234C714.613 386.234 714.616 386.175 714.674 386.178C715.705 384.945 716.938 383.931 718.209 382.907C718.211 382.849 718.268 382.851 718.268 382.851C719.524 381.599 723.686 378.936 723.686 378.936L732.54 377.364C732.54 377.364 746.382 380.356 751.423 387.608C764.405 406.286 750 442.361 759.361 462.806C749.888 469.922 720.089 474.545 710.374 467.538Z" fill="#FB78FF"/>
<path d="M732.541 377.365C727.545 381.22 724.223 382.348 723.687 378.938L723.245 372.671L722.586 363.153L730.657 363.492L731.735 371.378L732.541 377.365Z" fill="#F1CCCD"/>
<path d="M731.735 371.377C730.775 371.926 729.586 372.348 728.281 372.705C726.505 373.161 724.809 373.089 723.245 372.67L722.586 363.152L730.657 363.492L731.735 371.377Z" fill="#F0B4B4"/>
<path d="M717.993 348.967C717.993 348.967 714.845 369.109 723.808 369.892C732.77 370.676 733.803 360.287 733.803 360.287C733.803 360.287 738.286 356.977 736.699 353.995C735.111 351.012 731.012 354.55 731.012 354.55C726.36 356.028 721.994 354.453 717.993 348.967Z" fill="#F1CCCD"/>
<path d="M762.706 466.243L724.35 461.276C723.74 461.197 723.181 461.63 723.103 462.244L717.161 508.686C717.082 509.3 717.513 509.862 718.123 509.941L756.479 514.909C763.288 515.791 769.518 510.952 770.395 504.101L773.447 480.245C774.324 473.394 769.515 467.125 762.706 466.243Z" fill="#494790"/>
<path d="M724.351 461.277L742.824 463.669L739.13 492.543C738.061 500.9 743.928 508.547 752.234 509.623L766.698 511.496C764.076 514.041 760.375 515.414 756.48 514.91L718.124 509.942C717.514 509.863 717.083 509.301 717.162 508.687L723.103 462.246C723.182 461.631 723.74 461.198 724.351 461.277Z" fill="#6B67EB"/>
<path d="M735.742 466.667C735.871 465.396 735.95 464.135 735.963 462.882C735.995 462.127 735.995 461.351 735.962 460.587C735.963 460.192 735.95 459.778 735.936 459.379C735.922 459.361 735.924 459.345 735.928 459.312C735.899 458.896 735.87 458.479 735.84 458.079C735.717 456.347 735.511 454.619 735.203 452.928C735.131 452.589 735.076 452.252 735.004 451.913C734.926 451.506 734.844 451.116 734.748 450.707C734.572 449.909 734.362 449.105 734.152 448.319C733.941 447.533 733.695 446.757 733.434 445.981C733.32 445.587 733.173 445.204 733.04 444.825C732.908 444.444 732.76 444.062 732.613 443.679C732.481 443.299 732.331 442.933 732.167 442.549C732.019 442.166 731.852 441.798 731.686 441.429C731.204 440.327 730.672 439.218 730.104 438.154C729.893 437.747 729.681 437.357 729.452 436.963C729.077 436.304 728.699 435.661 728.291 435.013C727.363 433.539 726.365 432.106 725.294 430.729C724.376 429.57 723.421 428.44 722.427 427.369C722.067 426.976 721.688 426.597 721.313 426.202C720.962 425.859 720.613 425.517 720.247 425.172C719.955 424.886 719.662 424.618 719.352 424.346C719.279 424.271 719.221 424.215 719.144 424.172L719.147 424.155C712.991 418.653 705.421 414.602 696.953 412.695C695.422 412.349 693.866 412.065 692.285 411.86L637.956 404.824C632.146 404.071 626.826 408.202 626.078 414.049L611.445 528.421C611.386 528.876 611.358 529.351 611.367 529.799C611.364 530.459 611.429 531.111 611.546 531.737C611.66 532.379 611.828 532.995 612.064 533.586C612.283 534.177 612.554 534.756 612.881 535.277C613.029 535.528 613.194 535.78 613.376 536.018C613.372 536.051 613.403 536.071 613.417 536.09C613.555 536.289 613.713 536.475 613.869 536.66C613.924 536.749 613.996 536.825 614.054 536.882C614.241 537.088 614.428 537.293 614.633 537.485C614.822 537.675 615.028 537.866 615.251 538.044C615.576 538.317 615.923 538.56 616.288 538.79C616.483 538.931 616.696 539.057 616.912 539.167C616.928 539.169 616.928 539.169 616.928 539.169C617.204 539.321 617.466 539.454 617.746 539.573C618.149 539.757 618.556 539.909 618.984 540.03C619.19 540.091 619.411 540.151 619.635 540.197C619.954 540.272 620.274 540.329 620.613 540.373L674.942 547.41C676.524 547.615 678.099 547.737 679.667 547.791C705.198 548.687 727.688 529.875 731.016 503.86L735.568 468.279C735.637 467.743 735.689 467.206 735.742 466.667Z" fill="#494790"/>
<path d="M611.366 529.799C611.387 532.061 612.053 534.226 613.376 536.018C615.101 543.005 670.938 549.669 676.596 549.374C732.856 546.438 734.56 505.881 735.936 459.378C736.332 445.985 729.138 433.02 719.145 424.154L719.143 424.17C733.144 438.836 727.009 467.738 724.027 493.482C716.719 556.592 653.407 533.907 611.366 529.799Z" fill="#6B67EB"/>
<path d="M678.817 401.497C671.607 400.563 665.012 405.686 664.084 412.939L647.655 541.347C646.727 548.6 651.818 555.237 659.028 556.17C666.237 557.104 672.832 551.981 673.76 544.728L690.189 416.32C691.116 409.067 686.025 402.43 678.817 401.497Z" fill="#494790"/>
<path d="M625.5 394.592C618.291 393.658 611.696 398.781 610.768 406.034L594.339 534.442C593.411 541.694 598.502 548.331 605.711 549.265C612.92 550.199 619.516 545.076 620.444 537.823L636.873 409.415C637.8 402.161 632.708 395.525 625.5 394.592Z" fill="#494790"/>
<path d="M641.223 543.039L648.328 543.959L665.676 408.399L658.57 407.479L641.223 543.039Z" fill="#6B67EB"/>
<path d="M619.484 540.224L626.59 541.144L643.938 405.584L636.832 404.664L619.484 540.224Z" fill="#6B67EB"/>
<path d="M689.879 411.549L672.537 547.098L674.942 547.41C676.524 547.615 678.099 547.737 679.668 547.792L696.952 412.696C695.421 412.35 693.866 412.066 692.284 411.861L689.879 411.549Z" fill="#6B67EB"/>
<path d="M749.979 410.328C749.979 410.328 741.117 424.607 732.454 432.979C730.379 434.966 728.332 436.612 726.413 437.663C713.122 444.926 680.191 444.866 680.191 444.866C668.968 450.27 658.572 448.68 655.511 445.166C650.083 438.873 668.23 444.398 669.286 440.048C669.286 440.048 661.392 438.818 663.506 435.683C665.05 433.394 677.646 435.263 677.646 435.263C698.55 430.256 703.259 424.584 716.018 421.944C716.854 420.346 717.69 418.746 718.562 417.164C724.889 405.799 732.573 395.19 743.905 387.292C750.846 394.249 751.728 402.105 749.979 410.328Z" fill="#F1CCCD"/>
<path d="M735.5 432.909L716.242 416.387C722.57 405.021 734.304 380.4 745.826 388.013C761.169 398.15 744.165 424.538 735.5 432.909Z" fill="#9359F0"/>
<path d="M377.468 407.647C376.719 415.594 372.139 426.338 371.662 431.316C361.834 427.97 349.985 426.85 349.673 425.226L341.88 388.922C347.619 391.411 366.061 400.838 377.468 407.647Z" fill="#EBBB6A"/>
<path d="M339.247 562.08C337.183 569.817 335.906 576.761 335.23 583.217C333.491 599.709 333.982 625.105 336.981 641.157L345.386 640.327C345.386 640.327 357.26 596.943 362.872 574.757C364.314 569.128 365.433 564.099 366.015 560.306C369.406 538.657 356.848 477.324 356.042 473.353L356.008 473.201L355.998 473.145L322.177 468.392C304.208 511.409 325.523 522.229 339.247 562.08Z" fill="#F1CCCD"/>
<path d="M323.301 526.733C328.073 536.613 334.174 547.361 339.247 562.08C337.376 569.088 335.244 576.373 332.782 584.866L362.034 588.977C363.475 583.349 365.432 564.099 366.014 560.306C369.405 538.657 356.847 477.324 356.041 473.353L356.007 473.201L355.997 473.145L322.176 468.392C310.833 495.529 315.136 509.845 323.301 526.733Z" fill="#4642B8"/>
<path d="M323.301 526.733C328.073 536.613 334.174 547.361 339.247 562.08C337.375 569.088 335.244 576.373 332.782 584.866L338.179 585.625C339.104 577.222 346.482 563.407 348.959 563.851C346.764 563.305 326.66 523.695 325.131 509.977L323.301 526.733Z" fill="#3431A3"/>
<path d="M303.839 651.061L283.232 627.029C283.232 627.029 298.363 603.252 310.606 587.443C313.513 583.659 316.256 580.352 318.598 577.902C335.365 560.431 344.12 472.376 344.12 472.376H316.401C294.669 492.475 300.143 520.148 299.501 547.487C299.28 556.963 296.25 566.1 291.164 574.078C290.14 575.685 289.174 577.313 288.264 578.981C281.924 590.623 278.164 604.275 274.695 626.7L270.403 641.254L303.839 651.061Z" fill="#F1CCCD"/>
<path d="M286.865 578.506L294.875 582.198L311.151 589.691C314.058 585.909 316.256 580.353 318.599 577.903C335.365 560.431 346.191 472.03 346.191 472.03L317.582 472.358L316.402 472.376C295.398 491.802 299.807 518.305 299.547 544.743C299.441 555.532 295.975 566.062 289.434 574.613C288.474 575.867 287.6 577.155 286.865 578.506Z" fill="#4642B8"/>
<path d="M286.865 578.506L294.875 582.198C297.473 578.104 301.378 570.328 303.441 565.076C308.89 551.197 305.539 532.349 306.847 505.85C307.81 486.324 324.213 476.836 324.213 476.836L317.582 472.358L316.402 472.376C295.398 491.803 299.807 518.306 299.547 544.743C299.441 555.532 295.975 566.063 289.434 574.613C288.474 575.867 287.6 577.154 286.865 578.506Z" fill="#3431A3"/>
<path d="M302.324 415.538C302.559 433.119 306.865 463.604 308.5 474.57C308.736 476.159 309.608 477.53 310.843 478.389C311.516 478.864 312.315 479.193 313.168 479.321C320.997 480.49 328.663 481.13 336.128 481.111C342.849 481.111 349.406 480.6 355.782 479.485C358.271 479.046 360.179 477.036 360.451 474.514C361.341 466.217 358.754 448.014 359.172 430.304C359.444 419.101 355.95 390.425 335.157 385.913L322.976 385.801C309.316 389.365 303.595 399.874 302.65 407.22C302.36 409.397 302.269 412.248 302.324 415.538Z" fill="#FFD182"/>
<path d="M346.372 637.906C359.308 642.903 373.662 642.389 374.556 654.135L333.856 652.705C333.377 647.727 334.2 642.794 336.323 637.906H346.372V637.906Z" fill="#4642B8"/>
<path d="M283.233 627.029C293.587 636.293 309.077 642.825 305.799 654.134L268.212 641.492C269.508 636.663 271.247 628.911 274.947 625.089L283.233 627.029Z" fill="#4642B8"/>
<path d="M330.767 373.682C326.56 374.991 324.86 377.104 319.479 374.659C311.293 370.937 304.382 356.681 315.254 350.233C316.005 347.976 316.763 347.098 319.628 346.471C322.492 345.846 325.429 347.1 329.379 347.033C333.327 346.964 338.914 342.874 342.357 348.652C345.799 354.429 337.263 358.922 332.985 361.767C328.705 364.611 330.094 369.519 330.767 373.682Z" fill="#4642B8"/>
<path d="M322.804 385.835C327.236 390.294 331.416 391.148 335.158 385.914L334.104 377.313L333.665 373.691H323.858L323.669 375.937L322.804 385.835Z" fill="#F9CBCB"/>
<path d="M323.528 377.536C325.952 380.47 332.63 381.319 334.44 380.062L333.663 373.69L323.8 369.525L323.528 377.536Z" fill="#F0B4B4"/>
<path d="M338.542 353.884C340.457 359.314 342.334 371.319 337.753 375.784C334.854 378.609 324.334 377.516 322.185 369.745C319.648 367.896 317.785 363.389 320.123 361.343C321.79 359.886 323.919 363.737 326.826 363.1C327.93 362.858 324.541 355.443 327.984 354.158C331.428 352.874 335.071 355.657 338.542 353.884Z" fill="#F9CBCB"/>
<path d="M483.209 463.564L440.903 455.061C437.526 454.383 435.335 451.078 436.01 447.681C436.684 444.283 439.969 442.079 443.345 442.757L485.652 451.26C489.029 451.939 491.22 455.244 490.546 458.641C489.87 462.039 486.586 464.243 483.209 463.564Z" fill="#494790"/>
<path d="M483.926 459.952L441.619 451.449C438.871 450.897 436.939 448.6 436.666 445.935C436.375 446.474 436.134 447.048 436.009 447.682C435.334 451.079 437.525 454.384 440.902 455.062L483.209 463.565C486.586 464.244 489.87 462.039 490.545 458.642C490.67 458.008 490.667 457.386 490.604 456.776C489.335 459.13 486.674 460.504 483.926 459.952Z" fill="#6B67EB"/>
<path d="M472.233 518.853L429.926 510.351C426.55 509.672 424.359 506.367 425.033 502.97C425.708 499.573 428.992 497.368 432.369 498.047L474.675 506.549C478.052 507.227 480.243 510.532 479.568 513.929C478.894 517.328 475.609 519.532 472.233 518.853Z" fill="#494790"/>
<path d="M472.949 515.242L430.642 506.739C427.894 506.187 425.963 503.889 425.689 501.224C425.399 501.764 425.158 502.337 425.032 502.971C424.358 506.368 426.549 509.673 429.925 510.352L472.232 518.854C475.609 519.533 478.894 517.328 479.568 513.931C479.694 513.298 479.69 512.675 479.627 512.065C478.358 514.419 475.697 515.794 472.949 515.242Z" fill="#6B67EB"/>
<path d="M332.701 432.279L294.779 424.657C288.046 423.304 281.499 427.699 280.154 434.472L275.471 458.059C274.126 464.833 278.493 471.42 285.226 472.774L323.148 480.395C323.751 480.517 324.339 480.123 324.459 479.515L333.575 433.598C333.696 432.991 333.304 432.4 332.701 432.279Z" fill="#494790"/>
<path d="M332.7 432.279L314.435 428.608L308.767 457.156C307.127 465.419 299.14 470.78 290.927 469.129L276.626 466.255C278.303 469.51 281.373 472 285.224 472.774L323.147 480.396C323.751 480.517 324.338 480.123 324.458 479.516L333.574 433.599C333.696 432.991 333.304 432.4 332.7 432.279Z" fill="#6B67EB"/>
<path d="M440.82 419.115L418.37 532.198C418.28 532.647 418.155 533.107 418.006 533.528C417.798 534.153 417.53 534.751 417.221 535.306C416.908 535.879 416.554 536.408 416.143 536.893C415.747 537.382 415.307 537.844 414.831 538.232C414.611 538.422 414.375 538.609 414.126 538.775C414.12 538.808 414.085 538.817 414.065 538.83C413.871 538.975 413.663 539.1 413.456 539.226C413.376 539.293 413.284 539.341 413.211 539.377C412.968 539.512 412.726 539.647 412.47 539.763C412.231 539.882 411.976 539.997 411.708 540.094C411.312 540.248 410.907 540.367 410.488 540.467C410.258 540.538 410.017 540.589 409.777 540.624C409.761 540.62 409.761 540.62 409.761 540.62C409.451 540.675 409.162 540.718 408.859 540.739C408.418 540.785 407.984 540.797 407.54 540.775C407.326 540.766 407.097 540.752 406.87 540.724C406.544 540.692 406.222 540.644 405.887 540.577L352.171 529.781C350.608 529.467 349.075 529.076 347.572 528.624C323.095 521.267 307.757 496.212 312.864 470.489L319.847 435.31C319.953 434.78 320.074 434.254 320.195 433.727C320.476 432.481 320.801 431.261 321.187 430.069C321.397 429.343 321.642 428.607 321.917 427.895C322.041 427.52 322.185 427.131 322.325 426.758C322.345 426.746 322.348 426.729 322.354 426.697C322.514 426.311 322.673 425.926 322.83 425.557C323.497 423.955 324.24 422.384 325.069 420.881C325.244 420.583 325.404 420.281 325.58 419.983C325.784 419.623 325.985 419.279 326.206 418.922C326.626 418.223 327.08 417.528 327.53 416.851C327.98 416.173 328.458 415.518 328.953 414.867C329.185 414.529 329.447 414.214 329.693 413.897C329.938 413.578 330.2 413.264 330.462 412.949C330.707 412.631 330.965 412.332 331.243 412.021C331.504 411.706 331.779 411.411 332.054 411.115C332.861 410.226 333.716 409.346 334.594 408.52C334.922 408.202 335.248 407.9 335.589 407.602C336.154 407.097 336.716 406.609 337.309 406.127C338.656 405.029 340.057 403.992 341.509 403.031C342.747 402.228 344.01 401.464 345.292 400.77C345.758 400.513 346.237 400.276 346.719 400.022C347.16 399.809 347.6 399.597 348.056 399.388C348.424 399.211 348.787 399.051 349.167 398.894C349.26 398.845 349.333 398.81 349.419 398.794L349.422 398.778C357.002 395.542 365.462 394.137 374.091 395.053C375.652 395.216 377.216 395.447 378.78 395.761L432.495 406.557C438.238 407.71 441.967 413.335 440.82 419.115Z" fill="#494790"/>
<path d="M418.006 533.527C417.268 535.664 415.949 537.501 414.126 538.775C410.274 544.84 356.17 532.089 350.805 530.257C295.255 511.298 308.862 471.265 322.325 426.757C326.202 413.938 337.136 403.964 349.42 398.775L349.417 398.791C331.494 408.188 328.13 437.547 322.781 462.901C309.666 525.052 376.864 523.907 418.006 533.527Z" fill="#6B67EB"/>
<path d="M394.83 390.268C387.703 388.835 380.77 393.487 379.347 400.659L354.141 527.618C352.718 534.79 357.341 541.764 364.469 543.196C371.596 544.628 378.528 539.976 379.951 532.805L405.157 405.846C406.581 398.675 401.957 391.7 394.83 390.268Z" fill="#494790"/>
<path d="M447.545 400.863C440.417 399.43 433.485 404.082 432.061 411.253L406.856 538.213C405.432 545.384 410.056 552.359 417.184 553.791C424.311 555.224 431.243 550.572 432.666 543.401L457.872 416.441C459.296 409.269 454.672 402.295 447.545 400.863Z" fill="#494790"/>
<path d="M412.115 402.455L405.09 401.043L378.477 535.072L385.503 536.484L412.115 402.455Z" fill="#6B67EB"/>
<path d="M433.599 406.779L426.574 405.367L399.962 539.396L406.987 540.809L433.599 406.779Z" fill="#6B67EB"/>
<path d="M381.155 396.238L354.547 530.258L352.169 529.78C350.606 529.466 349.073 529.074 347.57 528.623L374.088 395.051C375.649 395.215 377.212 395.446 378.776 395.76L381.155 396.238Z" fill="#6B67EB"/>
<path d="M310.166 419.758C310.166 419.758 318.11 434.936 326.292 444.096C328.253 446.271 330.211 448.098 332.082 449.311C345.048 457.692 378.47 460.368 378.47 460.368C387.614 467.808 401.218 467.442 404.591 464.101C410.575 458.115 392.408 461.097 391.658 456.598C391.658 456.598 400.268 454.01 398.751 450.464C397.253 446.902 382.054 452.312 382.054 452.312C369.632 443.783 356.583 437.763 343.813 434.12C343.083 432.432 342.352 430.745 341.584 429.071C335.999 417.046 328.98 405.687 318.052 396.809C310.481 403.354 309 411.271 310.166 419.758Z" fill="#F9CBCB"/>
<path d="M323.201 443.796L343.999 428.455C338.414 416.43 328.32 390.527 316.044 397.397C299.701 406.542 315.019 434.636 323.201 443.796Z" fill="#EBBB6A"/>
<path d="M902.188 655.03H71.0658C70.574 655.03 70.1758 654.629 70.1758 654.134C70.1758 653.64 70.574 653.239 71.0658 653.239H902.188C902.68 653.239 903.078 653.64 903.078 654.134C903.078 654.629 902.68 655.03 902.188 655.03Z" fill="#263182"/>
<path d="M55.9185 655.03H20.4418C19.95 655.03 19.5518 654.63 19.5518 654.135C19.5518 653.64 19.95 653.24 20.4418 653.24H55.9185C56.4103 653.24 56.8085 653.64 56.8085 654.135C56.8085 654.629 56.4103 655.03 55.9185 655.03Z" fill="#263182"/>
<path d="M931.025 655.03H917.37C916.879 655.03 916.48 654.629 916.48 654.134C916.48 653.64 916.879 653.239 917.37 653.239H931.025C931.517 653.239 931.915 653.64 931.915 654.134C931.915 654.629 931.517 655.03 931.025 655.03Z" fill="#263182"/>
<path d="M1000.56 655.03H943.123C942.632 655.03 942.233 654.629 942.233 654.134C942.233 653.64 942.632 653.239 943.123 653.239H1000.56C1001.05 653.239 1001.45 653.64 1001.45 654.134C1001.45 654.629 1001.05 655.03 1000.56 655.03Z" fill="#263182"/>
<path d="M332.271 262.661H347.665C351.018 262.661 353.528 263.463 355.198 265.068C356.868 266.672 357.702 268.955 357.702 271.917C357.702 274.96 356.792 277.34 354.973 279.054C353.153 280.768 350.376 281.625 346.643 281.625H341.573V292.814H332.271V262.661ZM341.573 275.515H343.842C345.627 275.515 346.881 275.203 347.603 274.579C348.325 273.955 348.687 273.157 348.687 272.183C348.687 271.237 348.373 270.434 347.747 269.776C347.119 269.118 345.94 268.789 344.21 268.789H341.573V275.515Z" fill="#0F172A"/>
<path d="M368.864 278.045L360.912 277.202C361.211 275.803 361.644 274.702 362.21 273.901C362.775 273.099 363.59 272.402 364.652 271.813C365.416 271.389 366.464 271.059 367.801 270.826C369.136 270.593 370.581 270.477 372.134 270.477C374.628 270.477 376.631 270.617 378.145 270.898C379.657 271.179 380.918 271.765 381.926 272.657C382.635 273.274 383.193 274.148 383.602 275.278C384.011 276.41 384.215 277.49 384.215 278.518V288.165C384.215 289.193 384.28 289.999 384.409 290.581C384.539 291.164 384.821 291.908 385.258 292.813H377.448C377.135 292.252 376.93 291.823 376.835 291.528C376.74 291.233 376.645 290.771 376.549 290.139C375.459 291.195 374.376 291.95 373.299 292.402C371.827 293.006 370.117 293.307 368.168 293.307C365.579 293.307 363.613 292.703 362.27 291.496C360.928 290.29 360.257 288.802 360.257 287.033C360.257 285.374 360.74 284.009 361.708 282.94C362.676 281.871 364.461 281.076 367.065 280.555C370.185 279.925 372.209 279.482 373.136 279.228C374.063 278.974 375.044 278.641 376.08 278.23C376.08 277.201 375.868 276.481 375.446 276.07C375.024 275.659 374.281 275.453 373.218 275.453C371.855 275.453 370.833 275.673 370.152 276.111C369.621 276.455 369.191 277.099 368.864 278.045ZM376.08 282.447C374.936 282.858 373.742 283.222 372.503 283.537C370.813 283.99 369.743 284.436 369.293 284.874C368.83 285.327 368.598 285.841 368.598 286.416C368.598 287.075 368.826 287.612 369.283 288.031C369.739 288.45 370.41 288.659 371.296 288.659C372.223 288.659 373.084 288.433 373.882 287.98C374.68 287.527 375.245 286.975 375.579 286.324C375.913 285.672 376.08 284.826 376.08 283.784V282.447Z" fill="#0F172A"/>
<path d="M404.986 270.97H412.774V291.6L412.794 292.567C412.794 293.937 412.505 295.244 411.925 296.484C411.346 297.726 410.576 298.73 409.615 299.498C408.654 300.266 407.435 300.82 405.956 301.164C404.477 301.506 402.783 301.678 400.875 301.678C396.514 301.678 393.519 301.02 391.891 299.703C390.262 298.387 389.448 296.625 389.448 294.418C389.448 294.143 389.461 293.773 389.489 293.307L397.564 294.233C397.768 294.986 398.082 295.508 398.504 295.796C399.117 296.221 399.887 296.434 400.814 296.434C402.013 296.434 402.91 296.111 403.503 295.467C404.096 294.822 404.392 293.698 404.392 292.094V288.783C403.575 289.756 402.756 290.462 401.939 290.901C400.658 291.587 399.274 291.93 397.789 291.93C394.886 291.93 392.543 290.655 390.757 288.104C389.49 286.294 388.855 283.902 388.855 280.926C388.855 277.526 389.673 274.934 391.308 273.152C392.944 271.369 395.083 270.478 397.727 270.478C399.417 270.478 400.81 270.765 401.908 271.341C403.004 271.917 404.03 272.871 404.984 274.201V270.97H404.986ZM397.156 281.563C397.156 283.14 397.49 284.308 398.157 285.069C398.825 285.831 399.704 286.211 400.795 286.211C401.831 286.211 402.699 285.817 403.401 285.028C404.102 284.24 404.453 283.05 404.453 281.46C404.453 279.868 404.085 278.652 403.35 277.808C402.614 276.965 401.715 276.543 400.652 276.543C399.589 276.543 398.741 276.931 398.107 277.705C397.473 278.481 397.156 279.767 397.156 281.563Z" fill="#0F172A"/>
<path d="M441.905 283.969H425.224C425.373 285.313 425.735 286.314 426.308 286.972C427.111 287.918 428.161 288.392 429.456 288.392C430.274 288.392 431.05 288.187 431.786 287.775C432.236 287.515 432.719 287.055 433.237 286.397L441.435 287.158C440.181 289.352 438.669 290.926 436.897 291.878C435.125 292.832 432.583 293.308 429.272 293.308C426.396 293.308 424.134 292.9 422.485 292.084C420.836 291.268 419.47 289.972 418.386 288.197C417.302 286.421 416.761 284.334 416.761 281.933C416.761 278.519 417.847 275.757 420.021 273.645C422.195 271.533 425.196 270.478 429.026 270.478C432.133 270.478 434.587 270.95 436.386 271.897C438.185 272.843 439.554 274.215 440.494 276.011C441.435 277.808 441.905 280.145 441.905 283.025V283.969H441.905ZM433.442 279.959C433.279 278.341 432.845 277.182 432.144 276.482C431.442 275.783 430.519 275.433 429.374 275.433C428.052 275.433 426.996 275.962 426.206 277.017C425.701 277.675 425.381 278.656 425.245 279.959H433.442Z" fill="#0F172A"/>
<path d="M460.303 262.661H468.95L480.234 279.342V262.661H488.963V292.814H480.234L469.011 276.258V292.814H460.303V262.661Z" fill="#0F172A"/>
<path d="M493.543 281.952C493.543 278.621 494.66 275.875 496.896 273.716C499.13 271.556 502.149 270.476 505.951 270.476C510.299 270.476 513.583 271.744 515.804 274.281C517.59 276.324 518.483 278.84 518.483 281.83C518.483 285.189 517.375 287.941 515.161 290.087C512.946 292.233 509.883 293.307 505.972 293.307C502.483 293.307 499.661 292.416 497.508 290.632C494.864 288.425 493.543 285.532 493.543 281.952ZM501.883 281.932C501.883 283.88 502.275 285.319 503.058 286.252C503.842 287.185 504.826 287.651 506.012 287.651C507.211 287.651 508.196 287.191 508.966 286.272C509.735 285.354 510.121 283.88 510.121 281.851C510.121 279.958 509.732 278.549 508.955 277.623C508.179 276.698 507.218 276.235 506.073 276.235C504.86 276.235 503.858 276.705 503.067 277.644C502.278 278.583 501.883 280.012 501.883 281.932Z" fill="#0F172A"/>
<path d="M532.527 262.661V270.97H537.105V277.099H532.527V284.838C532.527 285.768 532.615 286.384 532.792 286.685C533.065 287.151 533.541 287.383 534.223 287.383C534.836 287.383 535.696 287.206 536.799 286.85L537.412 292.628C535.354 293.081 533.432 293.307 531.648 293.307C529.576 293.307 528.05 293.039 527.069 292.505C526.088 291.972 525.362 291.16 524.892 290.072C524.422 288.983 524.187 287.22 524.187 284.782V277.1H521.121V270.971H524.187V266.96L532.527 262.661Z" fill="#0F172A"/>
<path d="M555.627 262.661H578.523V269.14H564.929V274.406H576.54V280.494H564.929V292.814H555.628V262.661H555.627Z" fill="#0F172A"/>
<path d="M580.506 281.952C580.506 278.621 581.623 275.875 583.859 273.716C586.093 271.556 589.112 270.476 592.914 270.476C597.262 270.476 600.546 271.744 602.767 274.281C604.552 276.324 605.446 278.84 605.446 281.83C605.446 285.189 604.338 287.941 602.124 290.087C599.909 292.233 596.846 293.307 592.935 293.307C589.446 293.307 586.624 292.416 584.471 290.632C581.827 288.425 580.506 285.532 580.506 281.952ZM588.846 281.932C588.846 283.88 589.238 285.319 590.021 286.252C590.805 287.185 591.789 287.651 592.975 287.651C594.174 287.651 595.159 287.191 595.929 286.272C596.699 285.354 597.084 283.88 597.084 281.851C597.084 279.958 596.695 278.549 595.918 277.623C595.142 276.698 594.181 276.235 593.036 276.235C591.823 276.235 590.821 276.705 590.03 277.644C589.241 278.583 588.846 280.012 588.846 281.932Z" fill="#0F172A"/>
<path d="M632.328 292.813H624.56V289.275C623.402 290.729 622.232 291.764 621.053 292.381C619.875 292.998 618.427 293.307 616.71 293.307C614.42 293.307 612.625 292.618 611.323 291.239C610.022 289.861 609.371 287.74 609.371 284.874V270.97H617.732V282.981C617.732 284.354 617.984 285.327 618.489 285.902C618.993 286.478 619.702 286.766 620.615 286.766C621.61 286.766 622.424 286.382 623.058 285.614C623.691 284.847 624.008 283.469 624.008 281.48V270.97H632.328V292.813Z" fill="#0F172A"/>
<path d="M637.377 270.97H645.125V274.528C646.283 273.075 647.456 272.036 648.641 271.412C649.827 270.787 651.271 270.476 652.975 270.476C655.278 270.476 657.081 271.165 658.382 272.543C659.683 273.921 660.335 276.049 660.335 278.929V292.813H651.973V280.801C651.973 279.43 651.72 278.459 651.216 277.89C650.712 277.321 650.003 277.036 649.09 277.036C648.081 277.036 647.264 277.421 646.637 278.188C646.01 278.957 645.697 280.335 645.697 282.322V292.813H637.377V270.97Z" fill="#0F172A"/>
<path d="M688.156 262.661V292.814H680.367V289.584C679.277 290.956 678.282 291.882 677.383 292.361C676.184 292.991 674.848 293.307 673.376 293.307C670.418 293.307 668.159 292.176 666.599 289.912C665.039 287.651 664.259 284.901 664.259 281.666C664.259 278.045 665.12 275.276 666.845 273.357C668.569 271.436 670.76 270.477 673.417 270.477C674.712 270.477 675.887 270.696 676.943 271.135C678 271.574 678.937 272.232 679.754 273.11V262.661H688.156ZM679.815 281.83C679.815 280.116 679.453 278.837 678.732 277.994C678.009 277.15 677.096 276.728 675.992 276.728C675.024 276.728 674.214 277.133 673.559 277.942C672.905 278.751 672.578 280.108 672.578 282.014C672.578 283.797 672.916 285.103 673.59 285.932C674.264 286.762 675.099 287.176 676.094 287.176C677.157 287.176 678.043 286.758 678.752 285.922C679.461 285.086 679.815 283.722 679.815 281.83Z" fill="#0F172A"/>
<path d="M693.246 284.421H702.139V292.813H693.246V284.421Z" fill="#0F172A"/>
<path d="M707.188 284.421H716.081V292.813H707.188V284.421Z" fill="#0F172A"/>
<path d="M721.13 284.421H730.022V292.813H721.13V284.421Z" fill="#0F172A"/>
<path d="M499.234 415.031L500.495 429.378C500.841 433.31 506.896 432.614 506.55 428.683L505.289 414.336C504.943 410.404 498.888 411.1 499.234 415.031Z" fill="#131313"/>
<path d="M542.909 385.895L537.839 432.719C537.414 436.635 543.436 437.596 543.861 433.668L548.931 386.844C549.356 382.928 543.335 381.967 542.909 385.895Z" fill="#131313"/>
<path d="M588.163 414.28C583.571 420.915 578.979 427.55 574.387 434.186C572.154 437.413 576.91 441.248 579.156 438.002C583.749 431.367 588.34 424.732 592.932 418.097C595.165 414.869 590.409 411.034 588.163 414.28Z" fill="#131313"/>
<path d="M494.361 529.03C492.434 535.18 490.507 541.328 488.581 547.477C487.412 551.208 492.98 553.713 494.158 549.953C496.085 543.804 498.011 537.654 499.937 531.505C501.106 527.775 495.539 525.27 494.361 529.03Z" fill="#131313"/>
<path d="M527.298 534.184L521.301 574.474C520.72 578.381 526.742 579.329 527.323 575.424L533.32 535.134C533.902 531.228 527.879 530.28 527.298 534.184Z" fill="#131313"/>
<path d="M574.243 558.573C571.785 550.911 569.328 543.249 566.87 535.586C565.668 531.834 560.014 534.129 561.215 537.876C563.673 545.538 566.13 553.2 568.588 560.863C569.791 564.614 575.444 562.319 574.243 558.573Z" fill="#131313"/>
<defs>
<linearGradient id="paint0_linear_849_38" x1="419.185" y1="125.232" x2="419.185" y2="242.208" gradientUnits="userSpaceOnUse">
<stop stop-color="#0FADB5"/>
<stop offset="0.5" stop-color="#975BF6"/>
<stop offset="1" stop-color="#342D66"/>
</linearGradient>
<linearGradient id="paint1_linear_849_38" x1="525.74" y1="125.232" x2="525.74" y2="244.17" gradientUnits="userSpaceOnUse">
<stop stop-color="#0FADB5"/>
<stop offset="0.5" stop-color="#975BF6"/>
<stop offset="1" stop-color="#342D66"/>
</linearGradient>
<linearGradient id="paint2_linear_849_38" x1="632.217" y1="125.232" x2="632.217" y2="242.208" gradientUnits="userSpaceOnUse">
<stop stop-color="#0FADB5"/>
<stop offset="0.5" stop-color="#975BF6"/>
<stop offset="1" stop-color="#342D66"/>
</linearGradient>
</defs>
</svg>
