<svg width="318" height="238" viewBox="0 0 318 238" fill="none" xmlns="http://www.w3.org/2000/svg">
<path d="M318 209.15H0V209.31H318V209.15Z" fill="#EBEBEB"/>
<path d="M286.137 219.428H265.072V219.588H286.137V219.428Z" fill="#EBEBEB"/>
<path d="M210.656 221.166H205.129V221.326H210.656V221.166Z" fill="#EBEBEB"/>
<path d="M264.436 213.501H252.231V213.661H264.436V213.501Z" fill="#EBEBEB"/>
<path d="M60.8332 214.574H33.3644V214.734H60.8332V214.574Z" fill="#EBEBEB"/>
<path d="M70.5264 214.574H66.5005V214.734H70.5264V214.574Z" fill="#EBEBEB"/>
<path d="M143.196 217.268H83.6154V217.428H143.196V217.268Z" fill="#EBEBEB"/>
<path d="M150.732 180.658H27.9271C26.965 180.656 26.043 180.271 25.3633 179.587C24.6836 178.904 24.3019 177.977 24.3019 177.01V3.61572C24.3103 2.65495 24.6957 1.7363 25.3745 1.0593C26.0532 0.382307 26.9705 0.00164585 27.9271 0H150.732C151.696 0 152.619 0.384306 153.3 1.06837C153.981 1.75244 154.364 2.68024 154.364 3.64766V177.01C154.364 177.978 153.981 178.906 153.3 179.59C152.619 180.274 151.696 180.658 150.732 180.658ZM27.9271 0.127764C27.0072 0.129457 26.1256 0.497682 25.4757 1.15162C24.8259 1.80555 24.4609 2.69176 24.4609 3.61572V177.01C24.4609 177.934 24.8259 178.821 25.4757 179.474C26.1256 180.128 27.0072 180.497 27.9271 180.498H150.732C151.653 180.497 152.535 180.129 153.186 179.475C153.837 178.821 154.203 177.935 154.205 177.01V3.61572C154.203 2.69117 153.837 1.80498 153.186 1.15123C152.535 0.497474 151.653 0.129453 150.732 0.127764H27.9271Z" fill="#EBEBEB"/>
<path d="M288.305 180.658H165.494C164.531 180.656 163.608 180.271 162.928 179.588C162.247 178.904 161.864 177.977 161.862 177.01V3.61572C161.872 2.65437 162.259 1.73572 162.939 1.0589C163.619 0.382083 164.537 0.0016279 165.494 0H288.305C289.261 0.00332473 290.177 0.384728 290.854 1.06154C291.531 1.73836 291.916 2.65605 291.924 3.61572V177.01C291.924 177.976 291.543 178.901 290.865 179.585C290.187 180.269 289.266 180.655 288.305 180.658ZM165.494 0.127764C164.573 0.129453 163.691 0.497474 163.04 1.15123C162.389 1.80498 162.023 2.69117 162.021 3.61572V177.01C162.023 177.935 162.389 178.821 163.04 179.475C163.691 180.129 164.573 180.497 165.494 180.498H288.305C289.226 180.497 290.108 180.129 290.759 179.475C291.41 178.821 291.776 177.935 291.778 177.01V3.61572C291.776 2.69117 291.41 1.80498 290.759 1.15123C290.108 0.497474 289.226 0.129453 288.305 0.127764H165.494Z" fill="#EBEBEB"/>
<path d="M240.58 169.062V178.134L244.396 180.919H226.588L232.274 178.798V169.695L240.58 169.062Z" fill="#E0E0E0"/>
<path d="M192.543 180.657V209.231H272.043V180.657H192.543ZM193.974 182.509H256.2V191.849H193.98L193.974 182.509Z" fill="#E0E0E0"/>
<path d="M192.543 180.657V209.231H258.115V180.657H192.543ZM193.974 182.509H256.2V191.849H193.98L193.974 182.509Z" fill="#EBEBEB"/>
<path d="M193.974 191.85H206.796V182.511H193.974V191.85Z" fill="#E0E0E0"/>
<path d="M240.332 191.85H256.2V187.18H240.332V191.85Z" fill="#E0E0E0"/>
<path d="M227.218 191.85H239.162V189.078H227.218V191.85Z" fill="#E0E0E0"/>
<path d="M213.079 191.85H224.457V186.177H213.079V191.85Z" fill="#E0E0E0"/>
<path d="M244.923 193.882L245.261 195H249.827L250.17 193.882H256.2V206.281H236.185V193.882H244.923Z" fill="#E0E0E0"/>
<path d="M221.137 193.882L221.481 195H226.047L226.391 193.882H235.123V206.281H215.108V193.882H221.137Z" fill="#E0E0E0"/>
<path d="M202.77 193.882L203.107 195H207.673L208.017 193.882H214.046V206.281H194.031V193.882H202.77Z" fill="#E0E0E0"/>
<path d="M204.169 174.486H263.31C264.55 174.486 265.555 173.477 265.555 172.231V138.125C265.555 136.879 264.55 135.87 263.31 135.87H204.169C202.929 135.87 201.923 136.879 201.923 138.125V172.231C201.923 173.477 202.929 174.486 204.169 174.486Z" fill="#E0E0E0"/>
<path d="M202.675 174.486H261.817C263.056 174.486 264.062 173.477 264.062 172.231V138.125C264.062 136.879 263.056 135.87 261.817 135.87H202.675C201.435 135.87 200.43 136.879 200.43 138.125V172.231C200.43 173.477 201.435 174.486 202.675 174.486Z" fill="#E6E6E6"/>
<path d="M262.192 172.61V137.744H202.299V172.61H262.192Z" fill="#F0F0F0"/>
<path d="M121.566 33.6284H46.1168V111.935H121.566V33.6284Z" fill="#EBEBEB"/>
<path d="M124.205 33.6284H48.7561V111.935H124.205V33.6284Z" fill="#F0F0F0"/>
<path d="M122.207 35.4886H50.6572V110.122H122.207V35.4886Z" fill="#E0E0E0"/>
<path d="M120.42 35.4886H50.6572V110.122H120.42V35.4886Z" fill="#F5F5F5"/>
<path d="M86.2613 35.4886H84.843V110.122H86.2613V35.4886Z" fill="#EBEBEB"/>
<path d="M94.3888 35.4888L114.27 110.116H116.178L96.2968 35.4888H94.3888Z" fill="white"/>
<path d="M86.8652 34.3372H85.6504V111.551H86.8652V34.3372Z" fill="#F0F0F0"/>
<path d="M101.601 35.4886L120.421 106.116V67.2954L111.949 35.4886H101.601Z" fill="white"/>
<path d="M50.6572 42.2579V49.4191L66.8307 110.113H68.7387L50.6572 42.2579Z" fill="white"/>
<path d="M50.6572 56.72V95.541L54.5368 110.112H64.8782L50.6572 56.72Z" fill="white"/>
<path d="M254.114 38.0929H208.43V93.9257H254.114V38.0929Z" fill="#E6E6E6"/>
<path d="M243.658 80.0971L219.656 56.397L245.623 52.0913L243.658 80.0971Z" fill="#E0E0E0"/>
<path d="M220.235 74.4814L219.046 56.307L237.121 60.766L238.431 74.6667L220.235 74.4814Z" fill="#F0F0F0"/>
<path d="M249.037 54.0848C251.886 51.2234 251.886 46.584 249.037 43.7225C246.189 40.8611 241.57 40.8611 238.721 43.7225C235.872 46.584 235.872 51.2234 238.721 54.0848C241.57 56.9463 246.189 56.9463 249.037 54.0848Z" fill="#FAFAFA"/>
<path d="M222.6 80.9568C222.602 80.2525 222.395 79.5637 222.006 78.9776C221.617 78.3915 221.064 77.9344 220.416 77.6643C219.769 77.3942 219.056 77.3232 218.368 77.4603C217.681 77.5974 217.049 77.9364 216.553 78.4344C216.057 78.9324 215.72 79.567 215.583 80.2578C215.447 80.9486 215.517 81.6646 215.786 82.3151C216.055 82.9655 216.51 83.5212 217.094 83.9116C217.677 84.3021 218.363 84.5099 219.064 84.5086C220.002 84.507 220.9 84.1322 221.563 83.4665C222.226 82.8008 222.599 81.8983 222.6 80.9568Z" fill="#E0E0E0"/>
<path d="M219.897 87.2069L230.112 80.9593L221.526 73.8492L219.897 87.2069Z" fill="#F5F5F5"/>
<path d="M231.968 89.7803H233.978V45.1971H231.968V89.7803Z" fill="#E0E0E0"/>
<path d="M212.717 87.8057H215.318V45.1964H212.717V87.8057Z" fill="#EBEBEB"/>
<path d="M236.243 88.0112H249.523V74.6727H236.243V88.0112Z" fill="#EBEBEB"/>
<path d="M84.5245 181.151L76.1165 156.812C76.1165 156.812 87.7681 165.493 87.7045 155.873C87.6409 146.252 82.3875 153.726 80.5749 150.168C78.7623 146.61 85.7456 146.648 83.2906 141.257C80.8357 135.865 73.8715 144.15 72.6376 139.372C71.4038 134.594 69.4576 132.166 64.3696 132.594C64.3696 132.594 61.6285 138.88 65.0056 143.422C68.3828 147.964 56.6677 144.317 57.8761 148.884C59.0845 153.452 62.9641 157.438 64.6876 154.225C66.4112 151.011 68.5799 157.17 65.648 158.76C62.716 160.351 69.464 167.225 70.9713 163.615C72.007 161.218 73.2857 158.934 74.7873 156.799L82.5401 182.844L84.5245 181.151Z" fill="#EBEBEB"/>
<path d="M93.1936 181.367L102.67 165.799C102.67 165.799 93.2954 170.041 94.7963 163.391C96.2973 156.741 98.7968 162.707 100.59 160.523C102.384 158.338 97.5375 157.329 100.05 153.943C102.562 150.557 106.136 157.373 107.682 154.256C109.227 151.138 110.97 149.752 114.423 150.819C114.423 150.819 115.377 155.585 112.363 158.217C109.348 160.848 117.985 160.133 116.478 163.084C114.97 166.036 111.669 168.233 110.963 165.748C110.257 163.263 107.822 167.198 109.615 168.738C111.409 170.277 105.685 174.015 105.201 171.293C104.845 169.477 104.303 167.702 103.586 165.997L94.3066 182.843L93.1936 181.367Z" fill="#E6E6E6"/>
<path d="M86.8083 181.514L91.1458 156.441C91.1458 156.441 81.1542 166.77 79.6978 157.373C78.2414 147.976 84.5378 154.428 85.7462 150.666C86.9546 146.903 80.143 148.066 81.6821 142.412C83.2212 136.759 91.3302 143.728 91.7754 138.873C92.2206 134.018 93.747 131.335 98.7714 130.945C98.7714 130.945 102.441 136.631 99.8781 141.601C97.315 146.571 108.146 141.147 107.701 145.791C107.256 150.436 104.095 154.946 101.913 152.084C99.7318 149.222 98.5806 155.585 101.691 156.658C104.801 157.731 99.293 165.525 97.2705 162.247C95.8818 160.076 94.2726 158.055 92.4687 156.217L89.0406 182.843L86.8083 181.514Z" fill="#F5F5F5"/>
<path d="M81.4083 209.707H96.3034C96.806 209.708 97.2901 209.516 97.6565 209.17C98.023 208.825 98.2442 208.352 98.275 207.848L99.8523 182.065C99.8688 181.796 99.8302 181.526 99.7389 181.272C99.6477 181.018 99.5056 180.785 99.3215 180.588C99.1375 180.391 98.9153 180.234 98.6686 180.127C98.4219 180.019 98.1559 179.964 97.8871 179.964H79.8247C79.5558 179.964 79.2898 180.019 79.0432 180.127C78.7965 180.234 78.5743 180.391 78.3902 180.588C78.2061 180.785 78.0641 181.018 77.9728 181.272C77.8815 181.526 77.8429 181.796 77.8594 182.065L79.4367 207.88C79.4752 208.378 79.6998 208.843 80.0655 209.182C80.4311 209.521 80.9108 209.708 81.4083 209.707Z" fill="#EBEBEB"/>
<path d="M78.0691 182.842H99.8522C100.336 182.842 100.804 182.663 101.165 182.339C101.526 182.015 101.756 181.569 101.811 181.085C101.844 180.807 101.818 180.525 101.735 180.258C101.652 179.991 101.513 179.744 101.328 179.535C101.143 179.325 100.916 179.157 100.661 179.043C100.407 178.928 100.131 178.869 99.8522 178.869H78.0691C77.7915 178.869 77.5169 178.928 77.2635 179.042C77.01 179.156 76.7834 179.322 76.5985 179.53C76.4136 179.738 76.2745 179.983 76.1903 180.249C76.1062 180.515 76.0789 180.796 76.1103 181.073C76.162 181.558 76.3907 182.008 76.7523 182.334C77.1138 182.661 77.5828 182.842 78.0691 182.842Z" fill="#F5F5F5"/>
<path d="M159 238C227.104 238 282.314 234.762 282.314 230.769C282.314 226.775 227.104 223.537 159 223.537C90.8953 223.537 35.6857 226.775 35.6857 230.769C35.6857 234.762 90.8953 238 159 238Z" fill="#F5F5F5"/>
<path d="M226.626 41.2866V221.095C226.627 221.467 226.553 221.835 226.41 222.179C226.267 222.522 226.057 222.833 225.793 223.094C225.529 223.355 225.216 223.561 224.872 223.699C224.528 223.837 224.16 223.905 223.79 223.899H127.601C127.266 223.905 126.933 223.842 126.622 223.715C126.311 223.589 126.028 223.401 125.791 223.163C125.554 222.924 125.366 222.64 125.24 222.328C125.114 222.016 125.052 221.681 125.057 221.344V41.0567C125.045 40.7583 125.092 40.4605 125.195 40.1803C125.298 39.9002 125.455 39.6432 125.657 39.4242C125.859 39.2052 126.103 39.0284 126.373 38.904C126.643 38.7796 126.935 38.7101 127.232 38.6994H150.097C150.449 38.7064 150.792 38.8189 151.081 39.0226C151.37 39.2263 151.592 39.5119 151.718 39.8429L152.768 42.3982C152.897 42.7278 153.12 43.0114 153.41 43.2128C153.7 43.4141 154.043 43.5242 154.396 43.5289H197.396C197.746 43.5262 198.086 43.419 198.375 43.2211C198.664 43.0231 198.888 42.7434 199.018 42.4174L200.067 39.8174C200.193 39.4856 200.415 39.1992 200.704 38.9944C200.993 38.7896 201.335 38.6758 201.689 38.6675H224.165C224.837 38.6892 225.472 38.9768 225.933 39.4675C226.394 39.9581 226.644 40.6121 226.626 41.2866Z" fill="#4D535E"/>
<path d="M226.632 50.6948H125.07V211.147H226.632V50.6948Z" fill="url(#paint0_linear_800_306)"/>
<path opacity="0.7" d="M226.632 50.6948H125.07V211.147H226.632V50.6948Z" fill="white"/>
<path opacity="0.6" d="M137.065 46.4351H138.381V44.6783H137.065V46.4351Z" fill="white"/>
<path opacity="0.6" d="M134.921 46.4351H136.238V44.0906H134.921V46.4351Z" fill="white"/>
<path opacity="0.6" d="M132.778 46.4351H134.095V43.5029H132.778V46.4351Z" fill="white"/>
<path opacity="0.6" d="M130.635 46.4348H131.951V42.9149H130.635V46.4348Z" fill="white"/>
<path opacity="0.6" d="M214.861 44.0347H214.085V45.7914H214.861V44.0347Z" fill="white"/>
<path opacity="0.6" d="M215.394 46.4351H221.602V43.3879H215.394V46.4351Z" fill="white"/>
<path d="M170.824 66.6299H204.246C204.345 66.6393 204.446 66.6278 204.541 66.5959C204.636 66.5641 204.723 66.5127 204.797 66.4451C204.871 66.3774 204.93 66.295 204.97 66.2031C205.011 66.1111 205.032 66.0117 205.032 65.9112C205.032 65.8107 205.011 65.7113 204.97 65.6193C204.93 65.5274 204.871 65.445 204.797 65.3773C204.723 65.3097 204.636 65.2583 204.541 65.2265C204.446 65.1946 204.345 65.1831 204.246 65.1925H170.824C170.646 65.2094 170.48 65.2924 170.36 65.4253C170.239 65.5582 170.173 65.7315 170.173 65.9112C170.173 66.0909 170.239 66.2641 170.36 66.3971C170.48 66.53 170.646 66.613 170.824 66.6299Z" fill="#4D535E"/>
<path d="M211.852 69.2918H170.639C170.565 69.2836 170.49 69.2911 170.42 69.3139C170.349 69.3367 170.284 69.3741 170.229 69.4239C170.174 69.4736 170.129 69.5345 170.099 69.6025C170.069 69.6706 170.053 69.7443 170.053 69.8188C170.053 69.8933 170.069 69.967 170.099 70.0351C170.129 70.1031 170.174 70.164 170.229 70.2137C170.284 70.2635 170.349 70.3009 170.42 70.3237C170.49 70.3464 170.565 70.354 170.639 70.3458H211.852C211.981 70.3315 212.1 70.2698 212.187 70.1726C212.274 70.0753 212.322 69.9494 212.322 69.8188C212.322 69.6882 212.274 69.5623 212.187 69.465C212.1 69.3678 211.981 69.3061 211.852 69.2918Z" fill="#4D535E"/>
<path d="M199.761 72.3144H170.639C170.565 72.3062 170.49 72.3137 170.42 72.3365C170.349 72.3592 170.284 72.3967 170.229 72.4464C170.174 72.4962 170.129 72.5571 170.099 72.6251C170.069 72.6932 170.053 72.7668 170.053 72.8414C170.053 72.9159 170.069 72.9896 170.099 73.0577C170.129 73.1257 170.174 73.1866 170.229 73.2363C170.284 73.286 170.349 73.3235 170.42 73.3463C170.49 73.369 170.565 73.3766 170.639 73.3684H199.761C199.89 73.3541 200.01 73.2924 200.097 73.1952C200.183 73.0979 200.231 72.9719 200.231 72.8414C200.231 72.7108 200.183 72.5848 200.097 72.4876C200.01 72.3903 199.89 72.3287 199.761 72.3144Z" fill="#4D535E"/>
<path d="M225.418 91.8625H126.278V191.442H225.418V91.8625Z" fill="url(#paint1_linear_800_306)"/>
<path d="M222.225 202.213L219.433 199.792L216.635 202.213V195.557H222.225V202.213Z" fill="url(#paint2_linear_800_306)"/>
<path d="M212.138 195.557H207.928C207.651 195.557 207.386 195.667 207.19 195.863C206.995 196.06 206.885 196.326 206.885 196.604V199.492C206.885 199.77 206.995 200.036 207.19 200.232C207.386 200.429 207.651 200.539 207.928 200.539H209.359V202.213L210.446 200.539H212.138C212.275 200.54 212.411 200.514 212.538 200.461C212.665 200.409 212.781 200.332 212.878 200.234C212.975 200.137 213.051 200.021 213.104 199.894C213.156 199.766 213.182 199.629 213.181 199.492V196.604C213.182 196.466 213.156 196.33 213.104 196.202C213.051 196.075 212.975 195.959 212.878 195.862C212.781 195.764 212.665 195.687 212.538 195.635C212.411 195.582 212.275 195.556 212.138 195.557Z" fill="url(#paint3_linear_800_306)"/>
<path d="M203.698 196.347C202.923 195.07 201.422 195.549 200.646 196.539C199.876 195.542 198.382 195.038 197.587 196.315C196.257 198.462 198.967 200.474 200.251 201.266L200.614 201.49L200.983 201.266C202.248 200.493 205.009 198.513 203.698 196.347Z" fill="url(#paint4_linear_800_306)"/>
<g opacity="0.3">
<path opacity="0.7" d="M205.174 100.244H208.926L207.05 105.131L205.174 100.244Z" fill="white"/>
<path opacity="0.7" d="M217.264 124.57L218.403 128.16L213.2 127.84L217.264 124.57Z" fill="white"/>
<path d="M215.802 108.815L214.021 113.203L219.433 115.101V111.549L215.802 108.815Z" fill="white"/>
<path d="M145.625 99.0679H148.379L145.625 102.69V99.0679Z" fill="white"/>
<path d="M135.271 116.923L138.387 116.207L139.259 118.896L135.665 120.155L135.271 116.923Z" fill="white"/>
<path d="M166.804 102.69C167.475 102.69 168.019 102.144 168.019 101.47C168.019 100.796 167.475 100.25 166.804 100.25C166.133 100.25 165.589 100.796 165.589 101.47C165.589 102.144 166.133 102.69 166.804 102.69Z" fill="white"/>
<path d="M149.104 183.282C149.104 183.761 148.963 184.229 148.698 184.627C148.432 185.026 148.056 185.336 147.615 185.519C147.174 185.702 146.689 185.75 146.221 185.656C145.753 185.562 145.324 185.331 144.987 184.991C144.65 184.652 144.421 184.22 144.329 183.75C144.237 183.28 144.285 182.793 144.469 182.351C144.652 181.908 144.962 181.531 145.359 181.265C145.756 181 146.223 180.859 146.7 180.86C147.016 180.86 147.33 180.923 147.622 181.045C147.914 181.167 148.179 181.345 148.402 181.57C148.626 181.795 148.803 182.062 148.923 182.356C149.043 182.649 149.105 182.964 149.104 183.282Z" fill="white"/>
<path d="M137.497 162.246L138.387 163.76L134.082 165.613L133.102 164.603L137.497 162.246Z" fill="white"/>
<path d="M165.589 187.031L164.75 184.891H168.025L165.589 187.031Z" fill="white"/>
<path d="M200.385 184.893L200.639 182.511L205.129 183.699V187.18L200.385 184.893Z" fill="white"/>
<path d="M210.033 172.609H214.046L212.043 174.991L210.033 172.609Z" fill="white"/>
<path d="M216.635 148.089L215.802 153.148L216.724 153.991L217.589 148.089H216.635Z" fill="white"/>
<path d="M130.527 133.269L134.082 135.862L131.538 137.741L130.527 133.269Z" fill="white"/>
<path d="M146.3 112.737C146.521 112.737 146.7 112.557 146.7 112.334C146.7 112.112 146.521 111.932 146.3 111.932C146.078 111.932 145.899 112.112 145.899 112.334C145.899 112.557 146.078 112.737 146.3 112.737Z" fill="white"/>
<path d="M197.79 107.942C198.099 107.942 198.349 107.69 198.349 107.38C198.349 107.069 198.099 106.817 197.79 106.817C197.481 106.817 197.23 107.069 197.23 107.38C197.23 107.69 197.481 107.942 197.79 107.942Z" fill="white"/>
<path d="M182.767 184.433C182.767 184.554 182.72 184.669 182.635 184.754C182.551 184.839 182.436 184.887 182.316 184.887C182.196 184.887 182.081 184.839 181.997 184.754C181.912 184.669 181.864 184.554 181.864 184.433C181.864 184.313 181.912 184.198 181.997 184.113C182.081 184.028 182.196 183.98 182.316 183.98C182.436 183.98 182.551 184.028 182.635 184.113C182.72 184.198 182.767 184.313 182.767 184.433Z" fill="white"/>
<path d="M188.066 96.8759L192.543 96.1987V98.3899L188.066 99.067V96.8759Z" fill="white"/>
<path d="M217.589 99.0679H219.058L218.32 100.876L217.589 99.0679Z" fill="white"/>
<path d="M133.102 101.469H135.271L134.183 102.689L133.102 101.469Z" fill="white"/>
<path d="M215.318 187.032L215.108 182.842L218.32 183.979L215.318 187.032Z" fill="white"/>
<path d="M218.403 162.917L216.724 161.569V162.917L218.403 163.932V162.917Z" fill="white"/>
<path d="M132.301 149.438L134.184 151.041L133.242 152.472L130.749 150.466L132.301 149.438Z" fill="white"/>
<path d="M130.75 111.932H133.103L130.527 112.737L130.75 111.932Z" fill="white"/>
</g>
<path d="M171.765 108.108L176.02 104.09L180.23 108.147L185.343 105.317L188.422 110.299L194.076 108.843L195.818 114.433H201.657L201.969 120.284L207.623 121.741L206.465 127.49L211.585 130.314L209.047 135.59L213.302 139.602L209.537 144.08L212.666 149.031L207.909 152.43L209.715 158L204.271 160.102L204.64 165.953L198.839 166.63L197.752 172.393L191.964 171.594L189.484 176.903L184.078 174.686L180.357 179.209L175.67 175.714L170.951 179.164L167.275 174.609L161.85 176.769L159.42 171.441L153.632 172.175L152.596 166.407L146.802 165.672L147.228 159.827L141.803 157.674L143.66 152.116L138.935 148.673L142.115 143.754L138.388 139.238L142.687 135.271L140.2 129.962L145.345 127.19L144.245 121.434L149.912 120.035L150.274 114.183L156.113 114.241L157.913 108.664L163.554 110.178L166.677 105.227L171.765 108.108Z" fill="url(#paint5_linear_800_306)"/>
<path opacity="0.4" d="M210.173 145.356L213.938 140.884L209.683 136.872L212.227 131.596L207.107 128.772L208.265 123.023L202.611 121.566L202.299 115.715H196.46L194.718 110.125L189.064 111.582L185.986 106.599L180.898 109.429L176.687 105.372L172.432 109.39L167.344 106.509L164.222 111.467L158.58 109.946L156.78 115.523L150.942 115.466L150.579 121.317L144.913 122.716L146.013 128.466L140.868 131.238L143.354 136.547L139.023 140.539L142.75 145.056L139.57 149.975L144.296 153.418L142.439 158.976L147.864 161.128L147.438 166.974L153.232 167.708L154.262 173.458L160.056 172.723L162.485 178.051L167.91 175.892L171.587 180.446L176.306 176.997L180.993 180.491L184.714 175.968L190.12 178.185L192.6 172.876L198.381 173.675L199.475 167.925L205.275 167.248L204.9 161.397L210.351 159.295L208.544 153.718L213.302 150.326L210.173 145.356ZM209.002 149.483L204.798 152.485L206.395 157.411L201.58 159.263L201.911 164.431L196.785 165.032L195.824 170.142L190.736 169.439L188.542 174.128L183.772 172.174L180.484 176.16L176.344 173.074L172.178 176.122L168.934 172.097L164.139 174.013L161.996 169.305L156.876 169.944L155.966 164.834L150.878 164.195L151.26 159.033L146.465 157.117L148.105 152.211L143.933 149.17L146.744 144.826L143.45 140.84L147.266 137.332L145.008 132.618L149.555 130.171L148.582 125.061L153.594 123.828L153.912 118.66L159.064 118.711L160.654 113.786L165.634 115.127L168.394 110.751L172.89 113.306L176.643 109.755L180.363 113.338L184.879 110.841L187.601 115.242L192.594 113.964L194.133 118.909H199.291L199.564 124.083L204.557 125.361L203.539 130.433L208.055 132.925L205.816 137.588L209.575 141.133L206.249 145.088L209.002 149.483Z" fill="#4D535E"/>
<path opacity="0.4" d="M171.765 108.108L176.02 104.09L180.23 108.147L185.343 105.317L188.422 110.299L194.076 108.843L195.818 114.433H201.657L201.969 120.284L207.623 121.741L206.465 127.49L211.585 130.314L209.047 135.59L213.302 139.602L209.537 144.08L212.666 149.031L207.909 152.43L209.715 158L204.271 160.102L204.64 165.953L198.839 166.63L197.752 172.393L191.964 171.594L189.484 176.903L184.078 174.686L180.357 179.209L175.67 175.714L170.951 179.164L167.275 174.609L161.85 176.769L159.42 171.441L153.632 172.175L152.596 166.407L146.802 165.672L147.228 159.827L141.803 157.674L143.66 152.116L138.935 148.673L142.115 143.754L138.388 139.238L142.687 135.271L140.2 129.962L145.345 127.19L144.245 121.434L149.912 120.035L150.274 114.183L156.113 114.241L157.913 108.664L163.554 110.178L166.677 105.227L171.765 108.108Z" fill="#4D535E"/>
<path d="M209.537 144.08L213.302 139.608L209.047 135.597L211.591 130.32L206.471 127.496L207.629 121.747L201.975 120.291L201.663 114.439H195.825L194.082 108.849L188.428 110.306L185.35 105.323L180.262 108.153L176.051 104.096L171.797 108.115L166.709 105.234L163.586 110.191L157.945 108.67L156.145 114.247L150.306 114.19L149.944 120.041L144.277 121.44L145.377 127.19L140.232 129.962L142.719 135.271L138.388 139.263L142.115 143.78L138.935 148.699L143.66 152.142L141.803 157.7L147.228 159.853L146.802 165.698L152.596 166.432L153.626 172.182L159.42 171.447L161.85 176.775L167.275 174.616L170.951 179.17L175.67 175.721L180.357 179.215L184.078 174.692L189.484 176.909L191.964 171.6L197.745 172.399L198.839 166.65L204.64 165.972L204.264 160.121L209.715 158.019L207.909 152.442L212.666 149.05L209.537 144.08ZM208.367 148.207L204.163 151.209L205.759 156.135L200.945 157.987L201.275 163.155L196.149 163.756L195.189 168.866L190.101 168.164L187.907 172.853L183.137 170.898L179.848 174.884L175.708 171.798L171.542 174.846L168.299 170.821L163.503 172.738L161.36 168.029L156.24 168.668L155.331 163.558L150.243 162.919L150.624 157.757L145.829 155.841L147.47 150.935L143.297 147.894L146.109 143.55L142.814 139.564L146.63 136.057L144.372 131.342L148.92 128.895L147.947 123.785L152.958 122.552L153.276 117.384L158.428 117.435L160.018 112.51L164.998 113.851L167.758 109.475L172.255 112.031L176.007 108.479L179.728 112.063L184.243 109.565L186.965 113.966L191.958 112.689L193.497 117.633H198.655L198.928 122.807L203.921 124.085L202.903 129.157L207.419 131.649L205.18 136.312L208.939 139.858L205.613 143.812L208.367 148.207Z" fill="url(#paint6_linear_800_306)"/>
<path opacity="0.6" d="M209.537 144.08L213.302 139.608L209.047 135.597L211.591 130.32L206.471 127.496L207.629 121.747L201.975 120.291L201.663 114.439H195.825L194.082 108.849L188.428 110.306L185.35 105.323L180.262 108.153L176.051 104.096L171.797 108.115L166.709 105.234L163.586 110.191L157.945 108.67L156.145 114.247L150.306 114.19L149.944 120.041L144.277 121.44L145.377 127.19L140.232 129.962L142.719 135.271L138.388 139.263L142.115 143.78L138.935 148.699L143.66 152.142L141.803 157.7L147.228 159.853L146.802 165.698L152.596 166.432L153.626 172.182L159.42 171.447L161.85 176.775L167.275 174.616L170.951 179.17L175.67 175.721L180.357 179.215L184.078 174.692L189.484 176.909L191.964 171.6L197.745 172.399L198.839 166.65L204.64 165.972L204.264 160.121L209.715 158.019L207.909 152.442L212.666 149.05L209.537 144.08ZM208.367 148.207L204.163 151.209L205.759 156.135L200.945 157.987L201.275 163.155L196.149 163.756L195.189 168.866L190.101 168.164L187.907 172.853L183.137 170.898L179.848 174.884L175.708 171.798L171.542 174.846L168.299 170.821L163.503 172.738L161.36 168.029L156.24 168.668L155.331 163.558L150.243 162.919L150.624 157.757L145.829 155.841L147.47 150.935L143.297 147.894L146.109 143.55L142.814 139.564L146.63 136.057L144.372 131.342L148.92 128.895L147.947 123.785L152.958 122.552L153.276 117.384L158.428 117.435L160.018 112.51L164.998 113.851L167.758 109.475L172.255 112.031L176.007 108.479L179.728 112.063L184.243 109.565L186.965 113.966L191.958 112.689L193.497 117.633H198.655L198.928 122.807L203.921 124.085L202.903 129.157L207.419 131.649L205.18 136.312L208.939 139.858L205.613 143.812L208.367 148.207Z" fill="white"/>
<path opacity="0.4" d="M157.156 139.78C157.156 139.78 160.4 139.218 161.996 139.78C163.593 140.342 170.347 151.918 170.347 151.918C170.347 151.918 183.448 133.814 193.923 125.899C193.923 125.899 180.332 138.126 172.452 158.651C172.452 158.651 169.8 159.826 167.924 157.725C167.383 157.086 161.297 146.667 160.12 146.277C159.198 145.964 156.221 146.117 156.221 146.117L157.156 139.78Z" fill="#4D535E"/>
<path d="M156.52 139.141C156.52 139.141 159.764 138.579 161.36 139.141C162.956 139.703 169.711 151.278 169.711 151.278C169.711 151.278 182.812 133.174 193.287 125.259C193.287 125.259 179.696 137.486 171.816 158.011C171.816 158.011 169.164 159.187 167.288 157.085C166.747 156.446 160.66 146.027 159.484 145.637C158.562 145.324 155.585 145.478 155.585 145.478L156.52 139.141Z" fill="white"/>
<path d="M161.411 72.2824C161.424 74.901 160.767 77.4791 159.503 79.7693L159.223 80.2484C158.314 81.7632 157.15 83.1078 155.782 84.2219L155.706 84.2858C154.411 85.3339 152.955 86.1625 151.394 86.7388C149.707 87.3597 147.924 87.6755 146.128 87.6715C145.556 87.675 144.985 87.643 144.417 87.5757C143.463 87.4738 142.522 87.2792 141.606 86.9944C139.375 86.3054 137.333 85.1073 135.64 83.4936C133.789 81.7443 132.4 79.5602 131.597 77.1377C130.795 74.7152 130.604 72.1303 131.043 69.6156C131.482 67.1009 132.537 64.7353 134.112 62.7315C135.687 60.7277 137.733 59.1486 140.066 58.1362C142.4 57.1238 144.947 56.7099 147.479 56.9318C150.012 57.1536 152.449 58.0043 154.573 59.4071C156.696 60.81 158.44 62.7211 159.645 64.9686C160.851 67.216 161.482 69.7293 161.481 72.2824H161.411Z" fill="url(#paint7_linear_800_306)"/>
<path d="M159.477 79.7706L159.198 80.2497C155.691 80.1947 152.192 80.5919 148.786 81.4315L147.648 81.7126L146.872 81.917C145.899 82.1789 144.964 82.4536 144.169 82.7155L143.806 82.8369L143.546 82.92C142.598 83.2394 141.79 83.5268 141.173 83.7632C140.251 84.1146 139.723 84.3445 139.723 84.3445C139.422 83.954 139.146 83.5443 138.896 83.118L138.858 83.0477C137.478 80.7224 135.042 75.3819 136.187 67.7161C137.459 59.1878 144.5 59.7308 146.999 60.2036C147.298 60.2532 147.593 60.3215 147.883 60.408C147.883 60.408 155.763 62.2733 156.056 67.205C156.097 67.8651 156.178 68.5222 156.297 69.1726C157.038 72.794 158.103 76.341 159.477 79.7706Z" fill="#4D535E"/>
<path d="M151.368 86.7407C149.682 87.3616 147.899 87.6774 146.102 87.6734C145.531 87.6769 144.959 87.6449 144.391 87.5776C143.438 87.4758 142.496 87.2811 141.58 86.9963L141.091 82.9781L140.855 81.0616L151.343 82.5565V83.4572L151.375 86.1019V86.7407H151.368Z" fill="url(#paint8_linear_800_306)"/>
<path d="M155.68 84.2854C154.385 85.3336 152.929 86.1622 151.368 86.7385C149.681 87.3594 147.898 87.6752 146.102 87.6712C145.53 87.6747 144.959 87.6427 144.391 87.5754C143.438 87.4735 142.496 87.2788 141.58 86.994C139.349 86.3051 137.307 85.1069 135.614 83.4933C136.098 83.4167 136.587 83.3592 137.077 83.2953H137.198C137.777 83.2314 138.356 83.1739 138.934 83.1292C139.621 83.0717 140.302 83.027 140.989 83.0014H141.109L141.949 82.9695H142.947H144.118C145.39 82.9695 146.679 83.0163 147.985 83.11L149.301 83.2186L149.994 83.2889L150.999 83.4422L151.222 83.4741H151.374L152.557 83.6786C152.742 83.7105 152.926 83.7552 153.111 83.7808L153.461 83.851L153.836 83.9213L154.472 84.0491L154.917 84.1385L155.68 84.2854Z" fill="#4D535E"/>
<path d="M148.684 86.882C144.315 86.1346 143.068 84.1926 143.068 84.1926C144.938 82.57 144.715 80.0467 144.34 78.4432C144.22 77.9429 144.058 77.4536 143.857 76.9803L149.104 78.1941C148.952 78.927 148.852 79.67 148.805 80.4172C148.765 80.97 148.793 81.5257 148.888 82.0717C149.18 83.6688 150.083 83.7327 150.083 83.7327C150.916 85.5533 148.684 86.882 148.684 86.882Z" fill="#E4897B"/>
<path opacity="0.2" d="M148.786 80.4542C148.746 81.007 148.774 81.5627 148.869 82.1087C146.783 81.7382 145.256 79.9878 144.321 78.4802C144.201 77.9799 144.039 77.4906 143.838 77.0173L149.085 78.2311C148.933 78.964 148.833 79.707 148.786 80.4542Z" fill="#4D535E"/>
<path d="M148.074 63.1279C153.041 63.3451 154.529 66.0856 154.669 71.2409C154.853 77.6802 153.238 82.1839 147.088 80.5485C138.731 78.319 139.825 62.7702 148.074 63.1279Z" fill="#E4897B"/>
<path d="M151.47 70.8197C151.837 71.583 152.294 72.2993 152.831 72.9534C152.676 73.1523 152.469 73.305 152.234 73.3951C151.999 73.4851 151.743 73.5091 151.495 73.4644L151.47 70.8197Z" fill="#DE5753"/>
<path d="M146.363 67.7153C146.307 67.7156 146.253 67.6951 146.21 67.6578C146.188 67.6369 146.171 67.6117 146.159 67.5836C146.146 67.5556 146.14 67.5254 146.14 67.4949C146.14 67.4644 146.146 67.4342 146.159 67.4062C146.171 67.3782 146.188 67.3529 146.21 67.332C146.525 67.0295 146.906 66.8053 147.322 66.6777C147.739 66.5501 148.179 66.5226 148.608 66.5974C148.638 66.6027 148.666 66.614 148.691 66.6304C148.717 66.6468 148.739 66.6681 148.756 66.693C148.773 66.7179 148.785 66.746 148.791 66.7757C148.798 66.8053 148.798 66.8359 148.793 66.8657C148.787 66.8955 148.776 66.9239 148.76 66.9494C148.743 66.9749 148.722 66.9968 148.697 67.0141C148.672 67.0313 148.645 67.0434 148.615 67.0497C148.586 67.056 148.555 67.0565 148.525 67.0509C148.174 66.9949 147.814 67.0187 147.473 67.1204C147.132 67.2221 146.818 67.3991 146.554 67.6386C146.53 67.6655 146.501 67.6864 146.467 67.6997C146.434 67.713 146.399 67.7183 146.363 67.7153Z" fill="#4D535E"/>
<path d="M154.128 67.5112C154.08 67.51 154.034 67.4944 153.995 67.4665C153.755 67.2626 153.473 67.1148 153.17 67.0342C152.866 66.9535 152.548 66.9419 152.239 67.0002C152.211 67.0102 152.18 67.0143 152.15 67.0123C152.119 67.0102 152.09 67.0022 152.062 66.9885C152.035 66.9748 152.011 66.9558 151.991 66.9326C151.971 66.9094 151.956 66.8824 151.947 66.8533C151.929 66.7948 151.934 66.7315 151.961 66.6766C151.988 66.6218 152.036 66.5798 152.093 66.5594C152.471 66.4764 152.863 66.481 153.239 66.5729C153.614 66.6647 153.964 66.8415 154.262 67.0896C154.311 67.1266 154.344 67.1813 154.353 67.2421C154.363 67.303 154.348 67.3652 154.313 67.4154C154.291 67.4442 154.263 67.4677 154.231 67.4842C154.199 67.5008 154.164 67.51 154.128 67.5112Z" fill="#4D535E"/>
<path d="M142.286 71.304C142.286 71.304 144.786 67.305 144.569 64.1237C144.569 64.1237 154.586 60.5079 154.644 70.5629C154.644 70.5629 155.986 61.6961 147.457 61.1276C138.928 60.559 138.426 73.1118 142.674 77.0406C142.674 77.0406 140.741 73.8018 142.286 71.304Z" fill="#4D535E"/>
<path d="M143.056 72.3908C143.031 71.8123 142.78 71.2671 142.357 70.8736C141.934 70.4801 141.374 70.27 140.798 70.289C139.246 70.3912 138.381 73.5342 142.178 74.4605C142.719 74.5947 143.05 74.1028 143.056 72.3908Z" fill="#E4897B"/>
<path d="M151.591 74.9331C151.253 75.4391 150.951 75.9685 150.688 76.5174L150.376 76.428C148.99 75.9936 148.468 75.3356 148.347 74.7351C148.286 74.4388 148.297 74.1319 148.379 73.8408C148.42 73.6748 148.484 73.5155 148.57 73.368C149.308 74.0157 150.175 74.4971 151.114 74.7798C151.406 74.882 151.591 74.9331 151.591 74.9331Z" fill="#4D535E"/>
<path d="M151.12 74.7798L150.84 75.2398C149.568 74.8309 148.665 74.371 148.379 73.8408C148.42 73.6748 148.484 73.5155 148.57 73.368C149.31 74.0165 150.179 74.4979 151.12 74.7798Z" fill="white"/>
<path d="M150.376 76.4288C148.99 75.9944 148.468 75.3365 148.347 74.736C148.873 74.9086 149.365 75.1747 149.797 75.5217C150.083 75.753 150.286 76.0714 150.376 76.4288Z" fill="#DE5753"/>
<path d="M147.96 63.5C147.96 63.5 145.606 71.6257 140.467 71.2999C135.329 70.9741 143.711 60.9191 143.711 60.9191C143.711 60.9191 152.24 58.1019 156.196 62.7589C160.152 67.4159 154.644 70.5653 154.644 70.5653C154.644 70.5653 155.229 64.2218 147.96 63.5Z" fill="#4D535E"/>
<path d="M144.143 70.5008C144.112 70.5004 144.081 70.4905 144.055 70.4722C144.029 70.454 144.009 70.4284 143.997 70.3986C143.982 70.3604 143.982 70.3178 143.998 70.2798C144.013 70.2417 144.042 70.211 144.08 70.1942C148.087 68.4694 147.775 62.9819 147.775 62.9244C147.773 62.8831 147.787 62.8427 147.815 62.8117C147.842 62.7808 147.88 62.7616 147.921 62.7583C147.963 62.7565 148.004 62.7706 148.036 62.7978C148.068 62.8251 148.088 62.8635 148.093 62.9053C148.093 62.9628 148.417 68.6546 144.207 70.4881L144.143 70.5008Z" fill="#4D535E"/>
<path d="M148.544 70.5385C148.589 70.9218 148.417 71.2604 148.163 71.2923C147.908 71.3243 147.66 71.0304 147.616 70.6535C147.571 70.2766 147.743 69.9316 147.997 69.8997C148.252 69.8677 148.5 70.1488 148.544 70.5385Z" fill="#4D535E"/>
<path d="M147.889 69.9248L148.691 69.4968C148.691 69.4968 148.354 70.2698 147.889 69.9248Z" fill="#4D535E"/>
<path d="M153.308 69.8848C153.353 70.2681 153.181 70.6066 152.927 70.6386C152.672 70.6705 152.424 70.3831 152.38 69.9998C152.335 69.6165 152.507 69.2779 152.761 69.246C153.016 69.214 153.276 69.5015 153.308 69.8848Z" fill="#4D535E"/>
<path d="M152.64 69.2747L153.435 68.8467C153.435 68.8467 153.124 69.6324 152.64 69.2747Z" fill="#4D535E"/>
<path d="M155.757 84.2204L155.681 84.2843C154.386 85.3324 152.929 86.161 151.368 86.7373V86.2838V86.0857L150.535 84.3929L150.961 83.3835L151.324 82.5403L151.693 83.3452L155.757 84.2204Z" fill="url(#paint9_linear_800_306)"/>
<path opacity="0.6" d="M155.757 84.2204L155.681 84.2843C154.386 85.3324 152.929 86.161 151.368 86.7373V86.2838V86.0857L150.535 84.3929L150.961 83.3835L151.324 82.5403L151.693 83.3452L155.757 84.2204Z" fill="white"/>
<path d="M146.197 84.2667L144.461 86.4578L144.372 87.5821C143.418 87.4803 142.477 87.2856 141.561 87.0008C139.33 86.3119 137.288 85.1137 135.595 83.5001L137.039 83.2956H137.159L140.219 82.8613L140.855 81.0662L143.971 82.9315L146.216 84.2794L146.197 84.2667Z" fill="url(#paint10_linear_800_306)"/>
<path opacity="0.6" d="M146.191 84.2686L144.461 86.4598L144.372 87.5841C143.418 87.4823 142.477 87.2876 141.561 87.0028C139.33 86.3139 137.288 85.1157 135.595 83.5021L137.159 83.2849L140.219 82.8568L140.855 81.0618L143.971 82.9271L146.191 84.2686Z" fill="white"/>
<path d="M162.46 85.3008C162.46 86.1284 162.216 86.9374 161.758 87.6255C161.3 88.3136 160.65 88.8499 159.889 89.1666C159.127 89.4833 158.29 89.5662 157.482 89.4047C156.674 89.2433 155.931 88.8447 155.349 88.2596C154.766 87.6744 154.369 86.9288 154.209 86.1172C154.048 85.3055 154.13 84.4642 154.446 83.6996C154.761 82.935 155.295 82.2815 155.98 81.8218C156.665 81.362 157.47 81.1166 158.294 81.1166C159.399 81.1166 160.459 81.5574 161.24 82.3421C162.021 83.1268 162.46 84.1911 162.46 85.3008Z" fill="white"/>
<path d="M161.85 85.3037C161.85 86.0099 161.641 86.7004 161.251 87.2876C160.86 87.8748 160.305 88.3326 159.655 88.6028C159.006 88.8731 158.291 88.9438 157.601 88.806C156.911 88.6683 156.278 88.3282 155.781 87.8287C155.283 87.3293 154.945 86.693 154.808 86.0003C154.671 85.3076 154.741 84.5896 155.01 83.9371C155.279 83.2846 155.735 82.7269 156.319 82.3345C156.904 81.9421 157.591 81.7327 158.295 81.7327C159.238 81.7327 160.142 82.1089 160.809 82.7786C161.475 83.4483 161.85 84.3566 161.85 85.3037Z" fill="#4D535E"/>
<path d="M158.154 87.1622L156.259 85.4821L156.679 85.003L158.052 86.2167L159.859 83.7253L160.374 84.1022L158.154 87.1622Z" fill="white"/>
<path d="M246.82 213.077C246.82 213.077 243.112 204.958 247.347 196.953C251.583 188.949 252.804 187.064 250.108 185.423C247.411 183.781 246.171 191.811 246.171 191.811C246.171 191.811 243.894 186.272 245.777 180.485C247.659 174.697 248.829 165.261 246.266 164.246C243.703 163.23 245.777 176.013 243.551 180.37C242.416 177.312 241.685 174.118 241.375 170.87C241.064 166.22 241.547 158.79 239.518 156.887C237.489 154.983 236.198 156.299 238.189 166.565C239.386 172.698 240.045 178.925 240.161 185.173C240.161 185.173 235.766 171.707 232.815 171.317C229.864 170.928 229.87 175.285 232.395 179.066C234.92 182.848 239.792 189.626 240.593 193.12C240.593 193.12 235.766 182.989 231.422 186.093C227.078 189.198 235.2 195.318 238.819 197.535C242.438 199.751 244.956 213.607 244.956 213.607L246.82 213.077Z" fill="url(#paint11_linear_800_306)"/>
<path opacity="0.2" d="M246.82 213.077C246.82 213.077 243.112 204.958 247.347 196.953C251.583 188.949 252.804 187.064 250.108 185.423C247.411 183.781 246.171 191.811 246.171 191.811C246.171 191.811 243.894 186.272 245.777 180.485C247.659 174.697 248.829 165.261 246.266 164.246C243.703 163.23 245.777 176.013 243.551 180.37C242.416 177.312 241.685 174.118 241.375 170.87C241.064 166.22 241.547 158.79 239.518 156.887C237.489 154.983 236.198 156.299 238.189 166.565C239.386 172.698 240.045 178.925 240.161 185.173C240.161 185.173 235.766 171.707 232.815 171.317C229.864 170.928 229.87 175.285 232.395 179.066C234.92 182.848 239.792 189.626 240.593 193.12C240.593 193.12 235.766 182.989 231.422 186.093C227.078 189.198 235.2 195.318 238.819 197.535C242.438 199.751 244.956 213.607 244.956 213.607L246.82 213.077Z" fill="#4D535E"/>
<path d="M243.894 216.411C243.894 216.411 247.5 208.234 243.168 200.294C238.837 192.353 237.591 190.488 240.275 188.795C242.959 187.102 244.288 195.138 244.288 195.138C244.288 195.138 246.495 189.568 244.549 183.806C242.602 178.044 241.311 168.627 243.862 167.58C246.412 166.532 244.498 179.34 246.768 183.659C247.866 180.585 248.561 177.381 248.835 174.128C249.083 169.471 248.517 162.054 250.521 160.118C252.524 158.183 253.834 159.48 251.964 169.777C250.842 175.939 250.256 182.186 250.215 188.45C250.215 188.45 254.451 174.92 257.396 174.485C260.34 174.051 260.391 178.408 257.911 182.228C255.431 186.048 250.635 192.896 249.878 196.39C249.878 196.39 254.585 186.169 258.96 189.229C263.336 192.289 255.297 198.511 251.704 200.773C248.11 203.034 245.763 216.941 245.763 216.941L243.894 216.411Z" fill="url(#paint12_linear_800_306)"/>
<path d="M260.532 210.581H230.729L233.139 232.007H258.121L260.532 210.581Z" fill="#4D535E"/>
<path d="M63.0596 217.481L81.4082 215.673V192.995H88.6713V215.66L107.071 217.481C107.952 217.566 108.771 217.979 109.366 218.638C109.961 219.297 110.29 220.156 110.289 221.045V223.811H59.8414V221.033C59.8436 220.145 60.1742 219.29 60.7689 218.634C61.3637 217.977 62.1801 217.566 63.0596 217.481Z" fill="#4D535E"/>
<path opacity="0.1" d="M63.0596 217.481L81.4082 215.673V192.995H88.6713V215.66L107.071 217.481C107.952 217.566 108.771 217.979 109.366 218.638C109.961 219.297 110.29 220.156 110.289 221.045V223.811H59.8414V221.033C59.8436 220.145 60.1742 219.29 60.7689 218.634C61.3637 217.977 62.1801 217.566 63.0596 217.481Z" fill="white"/>
<path d="M109.102 231.942C111.692 231.52 113.451 229.068 113.03 226.467C112.61 223.866 110.169 222.099 107.579 222.521C104.989 222.944 103.231 225.395 103.651 227.996C104.072 230.598 106.512 232.364 109.102 231.942Z" fill="#4D535E"/>
<path d="M66.4696 228.014C66.8901 225.412 65.1313 222.961 62.5413 222.539C59.9514 222.117 57.511 223.883 57.0906 226.485C56.6702 229.086 58.4289 231.537 61.0189 231.96C63.6088 232.382 66.0492 230.615 66.4696 228.014Z" fill="#4D535E"/>
<path d="M87.2725 198.559H82.7632C82.0666 198.559 81.3985 198.281 80.9059 197.787C80.4133 197.292 80.1366 196.621 80.1366 195.921V175.524H89.8992V195.921C89.8992 196.621 89.6224 197.292 89.1298 197.787C88.6372 198.281 87.9691 198.559 87.2725 198.559Z" fill="#4D535E"/>
<path opacity="0.2" d="M87.2725 198.559H82.7632C82.0666 198.559 81.3985 198.281 80.9059 197.787C80.4133 197.292 80.1366 196.621 80.1366 195.921V175.524H89.8992V195.921C89.8992 196.621 89.6224 197.292 89.1298 197.787C88.6372 198.281 87.9691 198.559 87.2725 198.559Z" fill="white"/>
<path d="M59.6571 135.519C59.6571 135.519 65.0949 169.638 75.8305 175.515H64.9168C64.9168 175.515 54.1366 163.889 50.8802 135.519H59.6571Z" fill="#4D535E"/>
<path opacity="0.1" d="M59.6571 135.519C59.6571 135.519 65.0949 169.638 75.8305 175.515H64.9168C64.9168 175.515 54.1366 163.889 50.8802 135.519H59.6571Z" fill="white"/>
<path d="M64.3824 170.695H106.944C107.787 170.695 108.596 171.032 109.192 171.631C109.788 172.23 110.124 173.042 110.124 173.889V178.163H61.2024V173.889C61.2024 173.042 61.5374 172.23 62.1338 171.631C62.7302 171.032 63.539 170.695 64.3824 170.695Z" fill="url(#paint13_linear_800_306)"/>
<path d="M110.88 174.425H60.4391C59.7331 174.425 59.1608 175 59.1608 175.709V176.872C59.1608 177.581 59.7331 178.156 60.4391 178.156H110.88C111.586 178.156 112.159 177.581 112.159 176.872V175.709C112.159 175 111.586 174.425 110.88 174.425Z" fill="#4D535E"/>
<path opacity="0.6" d="M110.88 174.425H60.4391C59.7331 174.425 59.1608 175 59.1608 175.709V176.872C59.1608 177.581 59.7331 178.156 60.4391 178.156H110.88C111.586 178.156 112.159 177.581 112.159 176.872V175.709C112.159 175 111.586 174.425 110.88 174.425Z" fill="white"/>
<path d="M49.5572 142.458H67.0472C72.1352 142.458 75.4997 138.331 74.4757 133.24L73.1401 126.443C72.1225 121.332 67.1426 117.231 62.0228 117.231H44.5201C39.4321 117.231 36.0677 121.358 37.0916 126.443L38.4463 133.24C39.4321 138.331 44.4374 142.458 49.5572 142.458Z" fill="url(#paint14_linear_800_306)"/>
<path d="M66.0237 108.816H77.1664L78.1904 115.492L68.2815 117.229L66.0237 108.816Z" fill="url(#paint15_linear_800_306)"/>
<path d="M140.016 201.554L136.016 203.125L133.141 197.676L130.527 192.725L134.96 190.055L137.637 196.137L140.016 201.554Z" fill="#E4897B"/>
<path opacity="0.2" d="M137.637 196.137L133.141 197.676L130.527 192.725L134.96 190.055L137.637 196.137Z" fill="#4D535E"/>
<path d="M136.811 193.167L131.366 196.119C131.366 196.119 110.805 159.808 107.644 160.108C104.483 160.409 74.4889 179.592 65.3432 172.482C56.1975 165.372 65.0952 144.048 65.0952 144.048C65.0952 144.048 82.9668 137.226 85.021 141.397C85.9221 143.087 86.7248 144.827 87.4251 146.61C87.8258 147.888 88.1311 149.018 88.1311 149.018C88.7099 148.782 107.396 141.084 115.74 145.186C124.224 149.421 136.811 193.167 136.811 193.167Z" fill="url(#paint16_linear_800_306)"/>
<path opacity="0.3" d="M136.811 193.167L131.366 196.119C131.366 196.119 110.805 159.808 107.644 160.108C104.483 160.409 74.4889 179.592 65.3432 172.482C56.1975 165.372 65.0952 144.048 65.0952 144.048C65.0952 144.048 82.9668 137.226 85.021 141.397C85.9221 143.087 86.7248 144.827 87.4251 146.61C87.8258 147.888 88.1311 149.018 88.1311 149.018C88.7099 148.782 107.396 141.084 115.74 145.186C124.224 149.421 136.811 193.167 136.811 193.167Z" fill="white"/>
<path d="M107.248 222.777L102.981 222.285L102.962 216.242L102.955 210.691L108.113 210.448L107.655 216.976L107.248 222.777Z" fill="#E4897B"/>
<path opacity="0.2" d="M107.643 217.109L102.949 216.355V210.753L108.107 210.478L107.643 217.109Z" fill="#4D535E"/>
<path d="M128.708 194.298L136.67 190.293L137.497 193.679L131.468 196.803L128.708 194.298Z" fill="#4D535E"/>
<path d="M79.5004 172.56C79.5004 172.56 80.8105 172.413 100.921 168.67C100.921 168.67 101.379 194.51 102.333 213.764L108.527 213.968C108.527 213.968 117.431 171.219 116.369 164.779C115.307 158.34 107.675 157.452 107.675 157.452C107.675 157.452 94.3764 167.801 79.5004 172.56Z" fill="url(#paint17_linear_800_306)"/>
<path opacity="0.4" d="M79.5004 172.56C79.5004 172.56 80.8105 172.413 100.921 168.67C100.921 168.67 101.379 194.51 102.333 213.764L108.527 213.968C108.527 213.968 117.431 171.219 116.369 164.779C115.307 158.34 107.675 157.452 107.675 157.452C107.675 157.452 94.3764 167.801 79.5004 172.56Z" fill="white"/>
<path opacity="0.3" d="M79.5004 172.56C79.5004 172.56 80.8105 172.413 100.921 168.67C100.921 168.67 101.379 194.51 102.333 213.764L108.527 213.968C108.527 213.968 117.431 171.219 116.369 164.779C115.307 158.34 107.675 157.452 107.675 157.452C107.675 157.452 94.3764 167.801 79.5004 172.56Z" fill="#4D535E"/>
<path d="M101.169 212.043L109.615 211.845L108.464 215.339L101.608 215.403L101.169 212.043Z" fill="#4D535E"/>
<path opacity="0.3" d="M88.131 149.036L77.1664 152.958C77.1664 152.958 82.9349 148.633 87.4251 146.628C87.8257 147.931 88.131 149.036 88.131 149.036Z" fill="#4D535E"/>
<path d="M64.3889 142.535L64.2299 145.806L84.779 141.43L84.302 137.82L64.3889 142.535Z" fill="#4D535E"/>
<path opacity="0.2" d="M64.3889 142.535L64.2299 145.806L84.779 141.43L84.302 137.82L64.3889 142.535Z" fill="#4D535E"/>
<path d="M70.6332 140.533L69.6077 140.724L70.574 145.956L71.5996 145.765L70.6332 140.533Z" fill="url(#paint18_linear_800_306)"/>
<path d="M79.6013 139.205L75.1155 140.22L75.8817 143.635L80.3675 142.62L79.6013 139.205Z" fill="white"/>
<path d="M83.1138 137.445L82.0883 137.636L83.0537 142.869L84.0793 142.678L83.1138 137.445Z" fill="url(#paint19_linear_800_306)"/>
<path opacity="0.3" d="M70.6332 140.533L69.6077 140.724L70.574 145.956L71.5996 145.765L70.6332 140.533Z" fill="white"/>
<path opacity="0.3" d="M83.1138 137.445L82.0883 137.636L83.0537 142.869L84.0793 142.678L83.1138 137.445Z" fill="white"/>
<path d="M147.966 208.677C147.297 208.471 146.596 208.391 145.899 208.441C145.899 208.441 143.323 207.361 140.175 202.2L137.51 202.551C137.061 202.619 136.644 202.824 136.315 203.139C135.986 203.453 135.762 203.861 135.672 204.308C135.649 204.432 135.649 204.56 135.672 204.685C135.784 205.333 135.939 205.973 136.136 206.601C136.819 208.675 137.626 210.706 138.553 212.683L138.992 212.504L137.624 208.626C137.166 207.31 138.763 208.422 139.609 209.699C140.454 210.977 141.65 212.21 144.499 211.13C147.813 209.833 149.123 209.144 147.966 208.677Z" fill="url(#paint20_linear_800_306)"/>
<path d="M139.526 200.832C139.526 200.832 143.806 207.354 145.886 208.44C145.886 208.44 143.533 210.356 140.391 207.277C136.333 203.336 135.659 204.684 135.659 204.684C135.623 203.911 135.659 203.137 135.767 202.371C136.104 200.876 139.526 200.832 139.526 200.832Z" fill="#E4897B"/>
<path d="M113.634 230.38C113.032 230.023 112.37 229.779 111.682 229.658C111.682 229.658 109.43 227.99 107.618 222.241L104.946 221.947C104.492 221.905 104.036 222.005 103.641 222.234C103.246 222.463 102.931 222.809 102.74 223.225C102.682 223.339 102.644 223.462 102.625 223.589C102.584 224.24 102.584 224.893 102.625 225.544C102.801 227.719 103.107 229.883 103.541 232.021L104.005 231.951L103.592 227.863C103.458 226.47 104.749 227.933 105.271 229.377C105.792 230.82 106.657 232.302 109.678 231.932C113.208 231.466 114.645 231.108 113.634 230.38Z" fill="url(#paint21_linear_800_306)"/>
<path d="M107.281 220.745C107.281 220.745 109.901 228.104 111.682 229.656C111.682 229.656 108.947 230.934 106.594 227.222C103.579 222.419 102.6 223.575 102.6 223.575C102.743 222.816 102.956 222.072 103.236 221.352C103.948 219.972 107.281 220.745 107.281 220.745Z" fill="#E4897B"/>
<path d="M75.856 86.2409C75.856 86.2409 65.8136 81.3411 62.5 91.8944C59.1865 102.448 63.4349 109.73 63.4349 109.73C63.4349 109.73 75.0547 106.741 84.8364 108.829C84.8364 108.829 82.7248 99.8349 83.2336 94.6733C83.7424 89.5116 75.856 86.2409 75.856 86.2409Z" fill="#4D535E"/>
<path d="M83.6913 110.125C85.8982 110.22 95.1393 122.696 95.1393 122.696L98.5737 118.225C98.5737 118.225 103.865 128.554 101.245 133.473C98.6246 138.392 84.8234 124.952 84.8234 124.952L83.6913 110.125Z" fill="url(#paint22_linear_800_306)"/>
<path opacity="0.6" d="M83.6853 110.125L84.5884 120.096L84.8174 124.958C84.8174 124.958 87.0879 127.168 89.9563 129.468C94.1729 132.847 99.6807 136.412 101.239 133.486C103.859 128.574 98.5613 118.238 98.5613 118.238L95.1333 122.709V122.671C94.5991 121.904 85.8223 110.22 83.6853 110.125Z" fill="white"/>
<path opacity="0.2" d="M84.5881 120.098L84.8171 124.96C84.8171 124.96 87.0876 127.17 89.956 129.47C90.2295 123.631 84.8171 115.128 84.8171 115.128L84.5881 120.098Z" fill="#4D535E"/>
<path opacity="0.2" d="M95.1461 122.698L94.65 123.65L96.0874 129.272C96.0874 129.272 92.1187 125.643 94.65 122.092L95.1461 122.698Z" fill="#4D535E"/>
<path d="M84.8489 121.254C84.8489 121.408 84.8489 121.567 84.8489 121.727C84.8489 122.417 84.8489 123.145 84.8044 123.918C84.8044 123.982 84.8044 124.046 84.8044 124.116C84.8044 124.532 84.8044 124.96 84.8044 125.394C84.8044 125.471 84.8044 125.541 84.8044 125.618C84.8044 126.256 84.7598 126.895 84.7344 127.534C84.7344 127.624 84.7344 127.713 84.7344 127.802C84.7344 128.671 84.6644 129.585 84.6199 130.549C84.5182 132.715 84.3973 135.117 84.2447 137.781L83.9585 137.851L64.5287 142.476H64.4523C64.4523 142.476 65.2346 132.038 63.8927 126.129C63.883 126.077 63.8702 126.026 63.8545 125.975C63.8545 125.886 63.8164 125.796 63.7909 125.707C63.7655 125.618 63.7019 125.375 63.6637 125.202C63.6255 125.03 63.5747 124.857 63.5238 124.679C63.3521 124.04 63.1676 123.401 62.9705 122.698C62.8433 122.238 62.7033 121.766 62.5571 121.28L62.4807 121.037C62.309 120.462 62.1246 119.868 61.9338 119.255C61.8765 119.076 61.8257 118.904 61.7684 118.718C61.4886 117.843 61.1897 116.917 60.8653 115.946C60.5091 114.851 60.1191 113.691 59.6951 112.464C61.9233 111.751 64.1941 111.179 66.4939 110.752L67.4797 110.573L68.5227 110.401C70.2654 110.12 72.0271 109.922 73.7888 109.794C74.4969 109.743 75.2029 109.705 75.9067 109.679C76.3328 109.679 76.7717 109.679 77.1787 109.679H77.3568L78.6288 109.717H79.2203H79.5955H80.0026L80.6386 109.756H81.1219L81.9932 109.813L82.3367 109.845H82.642H82.9218H83.1508L83.7041 109.896C83.7041 109.896 83.7041 109.896 83.755 109.896L83.7995 109.941C83.842 109.992 83.8783 110.048 83.9076 110.107C84.103 110.523 84.2421 110.964 84.321 111.417C84.321 111.544 84.3719 111.685 84.4037 111.838C84.4355 111.992 84.48 112.317 84.5245 112.598C84.569 112.88 84.5818 113.007 84.6072 113.237C84.6326 113.467 84.6517 113.653 84.6708 113.876C84.859 116.331 84.9184 118.794 84.8489 121.254Z" fill="#4D535E"/>
<path d="M74.2976 113.909C69.6675 113.315 68.281 111.321 68.281 111.321C70.189 109.533 69.8265 106.894 69.3431 105.246C69.1977 104.723 69.0061 104.215 68.7707 103.726L74.3421 104.773C74.2125 105.551 74.1402 106.336 74.1258 107.124C74.1049 107.706 74.1584 108.288 74.2848 108.856C74.6601 110.529 75.6077 110.555 75.6077 110.555C76.5872 112.388 74.2976 113.909 74.2976 113.909Z" fill="#E4897B"/>
<path opacity="0.2" d="M74.1262 107.124C74.1053 107.706 74.1588 108.288 74.2852 108.856C72.072 108.568 70.3993 106.786 69.3435 105.246C69.198 104.723 69.0065 104.215 68.7711 103.726L74.3425 104.773C74.2129 105.551 74.1406 106.336 74.1262 107.124Z" fill="#4D535E"/>
<path d="M75.6081 89.0753C80.7342 90.123 81.8218 93.2213 81.1222 98.6001C80.2445 105.327 77.8277 109.735 71.703 107.007C63.3969 103.302 67.0984 87.3314 75.6081 89.0753Z" fill="#E4897B"/>
<path d="M77.8659 97.6382C78.1212 98.4915 78.4778 99.3108 78.928 100.078C78.734 100.259 78.4944 100.382 78.2353 100.435C77.9762 100.488 77.7076 100.469 77.4589 100.379L77.8659 97.6382Z" fill="#DE5753"/>
<path d="M73.1401 93.5614C73.1062 93.5613 73.0727 93.5538 73.042 93.5394C73.0112 93.5251 72.984 93.5043 72.962 93.4784C72.9398 93.4575 72.9222 93.4322 72.9101 93.4042C72.8981 93.3762 72.8918 93.346 72.8918 93.3155C72.8918 93.2849 72.8981 93.2547 72.9101 93.2267C72.9222 93.1987 72.9398 93.1735 72.962 93.1526C73.3367 92.8911 73.7674 92.7218 74.2193 92.6586C74.6712 92.5953 75.1316 92.6398 75.5632 92.7884C75.5916 92.7985 75.6178 92.8141 75.6402 92.8343C75.6626 92.8545 75.6808 92.879 75.6938 92.9063C75.7068 92.9335 75.7143 92.9631 75.7159 92.9933C75.7175 93.0235 75.7132 93.0538 75.7031 93.0823C75.6931 93.1108 75.6776 93.1371 75.6575 93.1596C75.6373 93.1821 75.613 93.2004 75.5858 93.2134C75.5587 93.2265 75.5292 93.234 75.4991 93.2356C75.4691 93.2373 75.439 93.2329 75.4106 93.2228C75.0524 93.1077 74.6732 93.0738 74.3004 93.1235C73.9276 93.1732 73.5704 93.3053 73.2545 93.5103C73.2212 93.5367 73.1819 93.5542 73.1401 93.5614Z" fill="#4D535E"/>
<path d="M81.2111 94.6295C81.151 94.6279 81.0939 94.6027 81.0521 94.5592C80.8335 94.3073 80.5623 94.1068 80.2578 93.9721C79.9533 93.8374 79.623 93.7718 79.2904 93.7798C79.2606 93.7853 79.2301 93.7846 79.2006 93.7778C79.1712 93.771 79.1434 93.7583 79.119 93.7403C79.0946 93.7224 79.0741 93.6997 79.0587 93.6735C79.0433 93.6473 79.0334 93.6183 79.0296 93.5882C79.0242 93.5583 79.0249 93.5276 79.0316 93.4981C79.0384 93.4685 79.0511 93.4405 79.069 93.416C79.0868 93.3915 79.1094 93.3709 79.1355 93.3555C79.1615 93.3401 79.1904 93.3301 79.2204 93.3263C79.6249 93.302 80.0296 93.3711 80.4033 93.5284C80.777 93.6856 81.11 93.9268 81.3765 94.2334C81.3978 94.2548 81.4147 94.2802 81.4263 94.3081C81.4379 94.3361 81.4438 94.366 81.4438 94.3963C81.4438 94.4266 81.4379 94.4565 81.4263 94.4845C81.4147 94.5125 81.3978 94.5378 81.3765 94.5592C81.3324 94.6031 81.2732 94.6282 81.2111 94.6295Z" fill="#4D535E"/>
<path d="M68.2494 96.6024C68.2494 96.6024 71.5057 92.8653 71.8047 89.5242C71.8047 89.5242 82.8011 87.4417 81.2047 97.8992C81.2047 97.8992 84.0604 88.9046 75.2963 86.8987C66.5322 84.8928 63.9373 97.8417 67.7025 102.626C67.7025 102.626 66.2269 98.9468 68.2494 96.6024Z" fill="#4D535E"/>
<path d="M68.8664 97.8625C68.9019 97.5626 68.8782 97.2586 68.7968 96.9678C68.7153 96.6771 68.5776 96.4053 68.3916 96.1681C68.2055 95.9308 67.9748 95.7326 67.7125 95.5849C67.4502 95.4372 67.1615 95.3429 66.863 95.3072C65.2412 95.1539 63.8165 98.2713 67.6071 99.8684C68.154 100.098 68.5865 99.6065 68.8664 97.8625Z" fill="#E4897B"/>
<path d="M77.3122 101.925C76.8764 102.396 76.4747 102.898 76.1101 103.426L75.8049 103.273C74.4311 102.596 74.0177 101.829 73.9732 101.184C73.962 100.865 74.0252 100.548 74.1576 100.258C74.2275 100.092 74.3196 99.9377 74.4311 99.7976C75.0897 100.604 75.9141 101.258 76.8479 101.714C77.1341 101.842 77.3122 101.925 77.3122 101.925Z" fill="#4D535E"/>
<path d="M76.8478 101.689L76.4852 102.123C75.2132 101.484 74.3674 100.846 74.1575 100.258C74.2274 100.093 74.3194 99.938 74.431 99.7979C75.0922 100.595 75.9164 101.24 76.8478 101.689Z" fill="white"/>
<path d="M75.805 103.272C74.4312 102.595 74.0178 101.828 73.9733 101.183C74.4943 101.445 74.9623 101.803 75.3534 102.237C75.6094 102.525 75.7675 102.887 75.805 103.272Z" fill="#DE5753"/>
<path d="M75.4232 89.4347C75.4232 89.4347 71.6072 97.4838 66.3538 96.2892C61.1005 95.0946 71.4418 86.0681 71.4418 86.0681C71.4418 86.0681 80.7719 84.5413 84.1046 90.0735C87.4372 95.6057 81.2044 97.931 81.2044 97.931C81.2044 97.931 82.858 91.4023 75.4232 89.4347Z" fill="#4D535E"/>
<path d="M70.3354 96.0742C70.3005 96.0727 70.2669 96.0602 70.2394 96.0384C70.212 96.0166 70.1922 95.9866 70.1828 95.9528C70.1771 95.9326 70.1756 95.9115 70.1783 95.8908C70.1811 95.87 70.188 95.85 70.1988 95.8321C70.2095 95.8141 70.2238 95.7986 70.2407 95.7864C70.2576 95.7742 70.2769 95.7656 70.2973 95.7611C74.7493 94.6304 75.3344 88.8747 75.3407 88.8172C75.3456 88.7759 75.3662 88.7382 75.3982 88.7119C75.4303 88.6857 75.4713 88.673 75.5125 88.6766C75.5335 88.6772 75.5541 88.6824 75.573 88.6917C75.5918 88.701 75.6085 88.7143 75.6218 88.7307C75.635 88.7471 75.6446 88.7661 75.6499 88.7865C75.6552 88.807 75.6561 88.8283 75.6524 88.8491C75.6524 88.9066 75.0164 94.886 70.3736 96.0678L70.3354 96.0742Z" fill="#4D535E"/>
<path d="M74.8701 96.8541C74.8701 97.2629 74.6221 97.5823 74.355 97.5759C74.0879 97.5695 73.8716 97.2246 73.8907 96.8157C73.9098 96.4069 74.1387 96.0811 74.4122 96.0939C74.6857 96.1066 74.8892 96.4644 74.8701 96.8541Z" fill="#4D535E"/>
<path d="M74.2977 96.1054L75.1945 95.7924C75.1945 95.7924 74.7238 96.527 74.2977 96.1054Z" fill="#4D535E"/>
<path d="M79.9328 96.9658C79.9328 97.3747 79.6784 97.7005 79.4112 97.6877C79.1441 97.6749 78.9342 97.3364 78.947 96.9275C78.9597 96.5187 79.195 96.1993 79.4685 96.212C79.742 96.2248 79.9455 96.557 79.9328 96.9658Z" fill="#4D535E"/>
<path d="M79.3539 96.2262L80.2506 95.9132C80.2506 95.9132 79.78 96.6415 79.3539 96.2262Z" fill="#4D535E"/>
<path d="M87.0564 118.361C87.047 118.43 87.0527 118.499 87.073 118.565C87.0932 118.631 87.1276 118.691 87.1736 118.743C87.2197 118.794 87.2763 118.834 87.3396 118.861C87.4028 118.888 87.4711 118.9 87.5397 118.898H92.8567C93.0036 118.892 93.1441 118.836 93.2543 118.738C93.3644 118.64 93.4375 118.507 93.4609 118.361L94.6438 107.821C94.6595 107.747 94.6592 107.67 94.6429 107.596C94.6267 107.523 94.5949 107.453 94.5498 107.392C94.5046 107.332 94.447 107.282 94.381 107.246C94.315 107.209 94.2419 107.188 94.1668 107.182H88.8499C88.6908 107.201 88.5434 107.275 88.433 107.392C88.3227 107.508 88.2564 107.66 88.2457 107.821L87.0564 118.361Z" fill="#4D535E"/>
<path opacity="0.5" d="M88.8367 107.749L87.6283 118.392C87.6133 118.454 87.613 118.519 87.6274 118.581C87.6419 118.644 87.6707 118.702 87.7115 118.751C87.7523 118.8 87.804 118.839 87.8625 118.864C87.921 118.889 87.9845 118.901 88.0481 118.897H92.5573C92.8626 118.897 93.4159 118.731 93.4477 118.43L94.6561 107.749C94.6561 107.449 94.1728 107.206 93.8675 107.206H89.3583C89.2187 107.213 89.087 107.273 88.99 107.374C88.8931 107.475 88.8382 107.609 88.8367 107.749Z" fill="white"/>
<path d="M98.1987 119.243L95.4257 114.515C95.4475 113.488 95.3687 112.461 95.1904 111.449C94.9487 110.861 92.233 109.533 91.6987 109.737C91.1645 109.942 90.9737 114.809 91.4571 115.486C91.9404 116.164 93.6385 116.873 93.6385 116.873L93.5241 117.799L95.1459 122.718L98.1987 119.243Z" fill="#E4897B"/>
<path d="M99.3118 118.707L98.3959 117.781L94.0266 122.7L94.6499 124.648L99.3118 118.707Z" fill="url(#paint23_linear_800_306)"/>
<path d="M77.1659 108.816L76.6125 110.86L77.7383 112.521L80.2314 135.877L87.0557 134.867C86.585 116.667 86.4197 116.571 83.7866 110.024L77.6747 109.596L77.1659 108.816Z" fill="url(#paint24_linear_800_306)"/>
<path opacity="0.6" d="M77.1659 108.816L76.6125 110.86L77.7383 112.521L80.2314 135.877L87.0557 134.867C86.585 116.667 86.4197 116.571 83.7866 110.024L77.6747 109.596L77.1659 108.816Z" fill="white"/>
<path d="M66.0232 108.816L72.0843 111.371L70.596 113.927L72.0652 137.838L62.8814 140.54C62.8814 140.54 56.2161 122.972 59.6314 112.547L65.648 110.803L66.0232 108.816Z" fill="url(#paint25_linear_800_306)"/>
<path opacity="0.6" d="M71.8302 134.03L72.0656 137.818L67.9697 139.019L62.8817 140.514C61.0018 135.319 59.6883 129.934 58.964 124.454C58.4742 120.296 58.487 116.009 59.6318 112.521L65.6483 110.777L66.0236 108.816L72.0846 111.371L70.5964 113.927L71.1815 123.419L71.8302 134.03Z" fill="white"/>
<path opacity="0.2" d="M77.2042 126.564C77.2042 126.564 74.921 129.905 71.83 134.032C70.6344 135.629 69.286 137.341 67.9695 139.021L62.8815 140.516C61.0016 135.321 59.688 129.936 58.9637 124.456C61.4569 121.945 64.5097 118.905 64.5097 118.905C64.5097 118.905 65.9089 123.249 65.292 127.024L71.1813 123.402L73.013 122.278L77.2042 126.564Z" fill="#4D535E"/>
<path d="M72.2307 123.868L78.5335 118.898C78.8985 117.823 79.3472 116.779 79.8754 115.775C80.257 115.308 85.7839 113.264 86.2354 113.219C86.687 113.175 86.2354 117.768 85.5422 118.547C84.849 119.326 80.4033 120.872 80.4033 120.872L73.8144 127.126L72.2307 123.868Z" fill="#E4897B"/>
<path d="M59.631 112.522C55.9295 114.388 54.2823 135.379 60.7122 139.001C67.1422 142.623 76.7394 126.225 76.7394 126.225L73.0061 122.245C73.0061 122.245 65.1833 128.825 64.242 128.218C63.3008 127.611 64.3692 121.191 64.3692 121.191C64.3692 121.191 65.4695 119.275 63.1545 116.189C60.8394 113.104 59.631 112.522 59.631 112.522Z" fill="url(#paint26_linear_800_306)"/>
<path opacity="0.6" d="M59.631 112.522C55.9295 114.388 54.2823 135.379 60.7122 139.001C67.1422 142.623 76.7394 126.225 76.7394 126.225L73.0061 122.245C73.0061 122.245 65.1833 128.825 64.242 128.218C63.3008 127.611 64.3692 121.191 64.3692 121.191C64.3692 121.191 65.4695 119.275 63.1545 116.189C60.8394 113.104 59.631 112.522 59.631 112.522Z" fill="white"/>
<path d="M76.8099 127.706L77.9292 127.029L73.738 120.858L72.1989 121.72L76.8099 127.706Z" fill="url(#paint27_linear_800_306)"/>
<defs>
<linearGradient id="paint0_linear_800_306" x1="175.851" y1="50.6948" x2="175.851" y2="211.147" gradientUnits="userSpaceOnUse">
<stop stop-color="#29B1B4"/>
<stop offset="0.5" stop-color="#6A80D9"/>
<stop offset="1" stop-color="#AA50FF"/>
</linearGradient>
<linearGradient id="paint1_linear_800_306" x1="175.848" y1="91.8625" x2="175.848" y2="191.442" gradientUnits="userSpaceOnUse">
<stop stop-color="#29B1B4"/>
<stop offset="0.5" stop-color="#6A80D9"/>
<stop offset="1" stop-color="#AA50FF"/>
</linearGradient>
<linearGradient id="paint2_linear_800_306" x1="219.43" y1="195.557" x2="219.43" y2="202.213" gradientUnits="userSpaceOnUse">
<stop stop-color="#29B1B4"/>
<stop offset="0.5" stop-color="#6A80D9"/>
<stop offset="1" stop-color="#AA50FF"/>
</linearGradient>
<linearGradient id="paint3_linear_800_306" x1="210.033" y1="195.557" x2="210.033" y2="202.213" gradientUnits="userSpaceOnUse">
<stop stop-color="#29B1B4"/>
<stop offset="0.5" stop-color="#6A80D9"/>
<stop offset="1" stop-color="#AA50FF"/>
</linearGradient>
<linearGradient id="paint4_linear_800_306" x1="200.636" y1="195.553" x2="200.636" y2="201.49" gradientUnits="userSpaceOnUse">
<stop stop-color="#29B1B4"/>
<stop offset="0.5" stop-color="#6A80D9"/>
<stop offset="1" stop-color="#AA50FF"/>
</linearGradient>
<linearGradient id="paint5_linear_800_306" x1="175.845" y1="104.09" x2="175.845" y2="179.209" gradientUnits="userSpaceOnUse">
<stop stop-color="#29B1B4"/>
<stop offset="0.5" stop-color="#6A80D9"/>
<stop offset="1" stop-color="#AA50FF"/>
</linearGradient>
<linearGradient id="paint6_linear_800_306" x1="175.845" y1="104.096" x2="175.845" y2="179.215" gradientUnits="userSpaceOnUse">
<stop stop-color="#29B1B4"/>
<stop offset="0.5" stop-color="#6A80D9"/>
<stop offset="1" stop-color="#AA50FF"/>
</linearGradient>
<linearGradient id="paint7_linear_800_306" x1="146.147" y1="56.8735" x2="146.147" y2="87.6718" gradientUnits="userSpaceOnUse">
<stop stop-color="#29B1B4"/>
<stop offset="0.5" stop-color="#6A80D9"/>
<stop offset="1" stop-color="#AA50FF"/>
</linearGradient>
<linearGradient id="paint8_linear_800_306" x1="146.115" y1="81.0616" x2="146.115" y2="87.6737" gradientUnits="userSpaceOnUse">
<stop stop-color="#29B1B4"/>
<stop offset="0.5" stop-color="#6A80D9"/>
<stop offset="1" stop-color="#AA50FF"/>
</linearGradient>
<linearGradient id="paint9_linear_800_306" x1="153.146" y1="82.5403" x2="153.146" y2="86.7373" gradientUnits="userSpaceOnUse">
<stop stop-color="#29B1B4"/>
<stop offset="0.5" stop-color="#6A80D9"/>
<stop offset="1" stop-color="#AA50FF"/>
</linearGradient>
<linearGradient id="paint10_linear_800_306" x1="140.905" y1="81.0662" x2="140.905" y2="87.5821" gradientUnits="userSpaceOnUse">
<stop stop-color="#29B1B4"/>
<stop offset="0.5" stop-color="#6A80D9"/>
<stop offset="1" stop-color="#AA50FF"/>
</linearGradient>
<linearGradient id="paint11_linear_800_306" x1="240.857" y1="156.151" x2="240.857" y2="213.607" gradientUnits="userSpaceOnUse">
<stop stop-color="#29B1B4"/>
<stop offset="0.5" stop-color="#6A80D9"/>
<stop offset="1" stop-color="#AA50FF"/>
</linearGradient>
<linearGradient id="paint12_linear_800_306" x1="249.548" y1="159.363" x2="249.548" y2="216.941" gradientUnits="userSpaceOnUse">
<stop stop-color="#29B1B4"/>
<stop offset="0.5" stop-color="#6A80D9"/>
<stop offset="1" stop-color="#AA50FF"/>
</linearGradient>
<linearGradient id="paint13_linear_800_306" x1="85.663" y1="170.695" x2="85.663" y2="178.163" gradientUnits="userSpaceOnUse">
<stop stop-color="#29B1B4"/>
<stop offset="0.5" stop-color="#6A80D9"/>
<stop offset="1" stop-color="#AA50FF"/>
</linearGradient>
<linearGradient id="paint14_linear_800_306" x1="55.7837" y1="117.231" x2="55.7837" y2="142.458" gradientUnits="userSpaceOnUse">
<stop stop-color="#29B1B4"/>
<stop offset="0.5" stop-color="#6A80D9"/>
<stop offset="1" stop-color="#AA50FF"/>
</linearGradient>
<linearGradient id="paint15_linear_800_306" x1="72.107" y1="108.816" x2="72.107" y2="117.229" gradientUnits="userSpaceOnUse">
<stop stop-color="#29B1B4"/>
<stop offset="0.5" stop-color="#6A80D9"/>
<stop offset="1" stop-color="#AA50FF"/>
</linearGradient>
<linearGradient id="paint16_linear_800_306" x1="99.0118" y1="140.047" x2="99.0118" y2="196.119" gradientUnits="userSpaceOnUse">
<stop stop-color="#29B1B4"/>
<stop offset="0.5" stop-color="#6A80D9"/>
<stop offset="1" stop-color="#AA50FF"/>
</linearGradient>
<linearGradient id="paint17_linear_800_306" x1="97.9788" y1="157.452" x2="97.9788" y2="213.968" gradientUnits="userSpaceOnUse">
<stop stop-color="#29B1B4"/>
<stop offset="0.5" stop-color="#6A80D9"/>
<stop offset="1" stop-color="#AA50FF"/>
</linearGradient>
<linearGradient id="paint18_linear_800_306" x1="70.1204" y1="140.628" x2="71.0951" y2="145.859" gradientUnits="userSpaceOnUse">
<stop stop-color="#29B1B4"/>
<stop offset="0.5" stop-color="#6A80D9"/>
<stop offset="1" stop-color="#AA50FF"/>
</linearGradient>
<linearGradient id="paint19_linear_800_306" x1="82.601" y1="137.541" x2="83.5748" y2="142.772" gradientUnits="userSpaceOnUse">
<stop stop-color="#29B1B4"/>
<stop offset="0.5" stop-color="#6A80D9"/>
<stop offset="1" stop-color="#AA50FF"/>
</linearGradient>
<linearGradient id="paint20_linear_800_306" x1="142.017" y1="202.2" x2="142.017" y2="212.683" gradientUnits="userSpaceOnUse">
<stop stop-color="#29B1B4"/>
<stop offset="0.5" stop-color="#6A80D9"/>
<stop offset="1" stop-color="#AA50FF"/>
</linearGradient>
<linearGradient id="paint21_linear_800_306" x1="108.272" y1="221.938" x2="108.272" y2="232.021" gradientUnits="userSpaceOnUse">
<stop stop-color="#29B1B4"/>
<stop offset="0.5" stop-color="#6A80D9"/>
<stop offset="1" stop-color="#AA50FF"/>
</linearGradient>
<linearGradient id="paint22_linear_800_306" x1="92.8323" y1="110.125" x2="92.8323" y2="134.556" gradientUnits="userSpaceOnUse">
<stop stop-color="#29B1B4"/>
<stop offset="0.5" stop-color="#6A80D9"/>
<stop offset="1" stop-color="#AA50FF"/>
</linearGradient>
<linearGradient id="paint23_linear_800_306" x1="96.6692" y1="117.781" x2="96.6692" y2="124.648" gradientUnits="userSpaceOnUse">
<stop stop-color="#29B1B4"/>
<stop offset="0.5" stop-color="#6A80D9"/>
<stop offset="1" stop-color="#AA50FF"/>
</linearGradient>
<linearGradient id="paint24_linear_800_306" x1="81.8341" y1="108.816" x2="81.8341" y2="135.877" gradientUnits="userSpaceOnUse">
<stop stop-color="#29B1B4"/>
<stop offset="0.5" stop-color="#6A80D9"/>
<stop offset="1" stop-color="#AA50FF"/>
</linearGradient>
<linearGradient id="paint25_linear_800_306" x1="65.3709" y1="108.816" x2="65.3709" y2="140.54" gradientUnits="userSpaceOnUse">
<stop stop-color="#29B1B4"/>
<stop offset="0.5" stop-color="#6A80D9"/>
<stop offset="1" stop-color="#AA50FF"/>
</linearGradient>
<linearGradient id="paint26_linear_800_306" x1="66.5544" y1="112.522" x2="66.5544" y2="139.524" gradientUnits="userSpaceOnUse">
<stop stop-color="#29B1B4"/>
<stop offset="0.5" stop-color="#6A80D9"/>
<stop offset="1" stop-color="#AA50FF"/>
</linearGradient>
<linearGradient id="paint27_linear_800_306" x1="75.064" y1="120.858" x2="75.064" y2="127.706" gradientUnits="userSpaceOnUse">
<stop stop-color="#29B1B4"/>
<stop offset="0.5" stop-color="#6A80D9"/>
<stop offset="1" stop-color="#AA50FF"/>
</linearGradient>
</defs>
</svg>
